<?xml version="1.0" standalone="no"?>
<!DOCTYPE svg PUBLIC "-//W3C//DTD SVG 1.1//EN" "http://www.w3.org/Graphics/SVG/1.1/DTD/svg11.dtd" >
<!--
2013-9-30: Created.
-->
<svg>
<metadata>
Created by iconfont
</metadata>
<defs>

<font id="iconfont" horiz-adv-x="1024" >
  <font-face
    font-family="iconfont"
    font-weight="500"
    font-stretch="normal"
    units-per-em="1024"
    ascent="896"
    descent="-128"
  />
    <missing-glyph />
    
    <glyph glyph-name="tiaoseban" unicode="&#59058;" d="M211.844673 820.422989c-1.410602 2.891733-3.314914 6.030322-5.642406 9.345236-0.564241 0.881626-1.128481 1.763252-1.798517 2.609613-7.440924 10.403187-19.818953 24.332879-29.44631 30.892176C120.790336 904.706438 57.313261 897.053924 23.705677 891.764168 11.891888 889.859856 0.64234 887.955543 0.183894 885.34593c-0.35265-2.327493 14.564462-6.700358 19.818954-9.592091 39.320521-21.511675 51.3459-53.743923 57.693607-75.996165 0.705301-5.360286 1.974842-10.755838 3.667565-16.116124 0.105795-0.670036 0.14106-1.022686 0.14106-1.022686h0.246855c3.138589-9.627356 7.899369-19.148918 14.317607-28.000443 27.330407-38.015715 73.703937-51.381166 103.643957-29.904755 26.836697 19.325243 31.209562 60.056366 12.131174 95.709323zM343.806459 244.439065c-50.816925 16.080859-82.379137 59.59792-70.459553 97.331515 6.559298 20.665314 25.002914 34.982921 48.524697 41.295364-13.189126 20.136339-26.766167 40.519533-38.826811 59.88004l-2.750673 4.3376c-42.847025 65.839833-80.051644 125.931463-111.155411 179.005351 1.516397-3.314914 3.138589-6.806153 4.937106-10.791103 0.564241-1.304807 1.128481-2.433288 1.727987-3.808624 5.818732-13.118595 12.624885-29.37578 19.607363-47.572541 0.705301-1.833782 1.410602-3.808624 2.115903-5.712937 2.715408-7.299864 5.430816-14.881848 8.110959-22.710687 0.846361-2.539083 1.727987-5.078166 2.574348-7.652514 2.715408-8.146225 5.289756-16.539304 7.758309-25.002914 0.599506-2.010107 1.199011-3.949685 1.763252-5.959792 3.032794-10.755838 5.853997-21.688001 8.216755-32.620163 11.884319-54.308164 14.564462-109.180569-7.088273-146.279393l-9.451031-16.186654c-13.753366-14.846582-12.94227-44.010772 1.551661-64.852411 0 0 39.073666-55.859826 83.119703-97.613635 102.021765-96.626214 224.074074-152.344979 338.509134-164.335094-94.333986 103.573427-190.219634 234.054081-215.751524 269.354388-20.91217-7.652514-46.93777-8.357815-73.033901-0.105796zM1002.94535 322.198482c-0.21159 3.350179-0.811096 6.770888-1.128481 10.156332-0.952156 9.944742-1.974842 19.889483-3.597034 29.904755-0.811096 4.972371-1.974842 9.980007-2.962264 14.987643-1.657457 8.46361-3.350179 16.962485-5.466081 25.46136-1.375337 5.536612-3.103324 11.037958-4.690251 16.574569-2.327493 8.040429-4.690251 16.045594-7.405659 24.050759-1.974842 5.748202-4.12601 11.461138-6.312442 17.20934-2.962263 7.793574-6.065587 15.587148-9.415766 23.345457-2.503818 5.818732-5.148696 11.602199-7.899369 17.385666-3.632299 7.687779-7.476189 15.340293-11.496404 22.957542-2.997529 5.712937-6.065587 11.390608-9.274706 17.06828-4.3376 7.652514-8.992586 15.199233-13.753366 22.781217-3.455974 5.501346-6.876683 11.002693-10.544248 16.433509-5.219226 7.758309-10.791103 15.375558-16.433509 22.992807-3.702829 5.042901-7.299864 10.085802-11.179018 15.058173-6.524033 8.32255-13.541776 16.398244-20.559519 24.509204-3.526504 4.05548-6.841418 8.216755-10.508983 12.236969-10.932163 11.990114-22.358036 23.733373-34.383415 35.159247-176.818918 167.544212-413.553142 211.660779-566.462362 117.785238 2.750673-9.733151 4.47866-19.466303 4.76078-29.023129 6.488768-7.123538 13.0128-14.282342 19.713159-21.723265 4.972371 6.171382 11.037958 11.037958 11.037958 11.037958 3.209119 2.362758 9.274706 2.115902 13.577041-0.705301l4.161274-2.010108c25.919806-12.44856 64.147111 6.312442 64.147111 6.312443 3.773359 1.798517 11.531669 1.093216 17.244605-1.551662 0 0 3.103324-1.516397 9.521562-5.853997 44.116567-29.340515 60.902727-81.638571 37.522004-116.797817-9.451031-14.211812-24.086023-23.169132-40.977979-27.189347 15.587148-19.184183 31.456417-38.897341 47.819397-59.562656l3.561769-4.302335c46.126674-56.106681 93.52289-117.996829 140.989636-183.907191 34.524476-48.030987 83.789739-118.878455 130.410124-193.181898 1.727987 6.382973 4.090745 12.554355 7.864104 18.232027 5.078166 7.687779 13.577041 14.211812 13.577041 14.211811 3.173854 2.468553 9.274706 2.186433 13.577041-0.63477l4.19654-2.045373c25.88454-12.413295 64.111846 6.347707 64.111845 6.347708 3.773359 1.833782 11.531669 1.128481 17.244606-1.586927 0 0 3.103324-1.445867 9.556826-5.748202 44.116567-29.37578 60.902727-81.638571 37.522004-116.797817-20.171604-30.363201-63.688665-37.874655-103.608692-20.55952 13.859161-25.46136 26.342986-50.182154 36.746173-73.457081 40.096352 15.975064 76.45461 39.249991 106.570956 71.059059 13.894426 14.670257 25.46136 30.821646 35.864547 47.643071 0.07053-0.176325 0.21159-0.42318 0.317385-0.634771 1.692722 2.715408 2.962263 5.642407 4.549191 8.428345 2.715408 4.725516 5.325021 9.521561 7.793574 14.423402 3.068059 6.136117 5.889262 12.37803 8.569405 18.690472 2.080637 4.972371 4.161275 9.944742 6.030322 15.022908 2.398023 6.665093 4.443395 13.471246 6.418238 20.312663 1.445867 5.042901 2.997529 10.050537 4.19654 15.163968 1.763252 7.405659 3.068059 14.952378 4.3376 22.534362 0.811096 4.831311 1.798517 9.556826 2.433288 14.458667 1.128481 8.922056 1.692722 17.985171 2.186432 27.083552 0.21159 3.738094 0.670036 7.405659 0.775831 11.179018 0.387915 12.907005 0.07053 25.919806-0.846361 39.073666z m-327.29485 345.491612c-23.415988-35.229776-78.112067-39.884762-122.228634-10.579513-44.116567 29.411045-60.937992 81.709101-37.522004 116.833083 5.113431 7.687779 13.612306 14.211812 13.612306 14.211812 3.138589 2.503818 9.239441 2.186433 13.50651-0.634771l4.231805-2.045372c25.919806-12.413295 64.111846 6.347707 64.111846 6.347707 3.773359 1.833782 11.566934 1.128481 17.244605-1.516397 0 0 3.138589-1.551662 9.556827-5.818732 44.116567-29.411045 60.867462-81.673836 37.486739-116.797817z m68.096795-163.277142c-44.116567 29.340515-60.973257 81.638571-37.592534 116.833082 5.113431 7.687779 13.612306 14.176547 13.612306 14.176547 3.173854 2.433288 9.274706 2.115902 13.577041-0.634771l4.19654-2.045372c25.849275-12.413295 64.111846 6.312442 64.111845 6.312442 3.808624 1.869047 11.531669 1.163746 17.20934-1.586927 0 0 3.173854-1.516397 9.592092-5.748202 44.116567-29.37578 60.902727-81.673836 37.486739-116.833082-23.415988-35.123981-78.112067-39.849497-122.193369-10.473717z m206.864733-220.230185c-23.451253-35.194511-78.182597-39.884762-122.263899-10.579512-44.151832 29.37578-60.973257 81.709101-37.522004 116.868347 5.078166 7.687779 13.612306 14.176547 13.612306 14.176547 3.138589 2.503818 9.239441 2.186433 13.506511-0.634771l4.161275-2.080637c25.919806-12.342765 64.147111 6.312442 64.147111 6.312442 3.773359 1.904312 11.531669 1.163746 17.244605-1.516396 0 0 3.138589-1.481132 9.592091-5.783467 44.081302-29.30525 60.902727-81.603306 37.522004-116.762553zM217.663405 699.781282c-13.400716-9.662621-29.44631-14.564462-46.444059-15.410823 35.476632-63.230219 82.167547-139.579034 137.956842-225.096761l-0.105795-0.07053c36.922498-59.210005 80.333765-123.850826 128.258956-190.607549 173.715595-241.706595 341.471397-418.278658 374.726331-394.43949 33.184404 23.874433-80.72168 239.167512-254.402009 480.909372-47.960456 66.686194-95.427202 128.400016-139.75536 182.355529l-0.105795-0.07053c-63.406545 80.404295-120.994357 149.135861-169.660115 202.985579-6.065587-16.186654-16.186654-30.327936-30.468996-40.554797z m192.053416-166.063081c0.42318-0.28212 0.846361-0.705301 1.093217-1.093216 1.622192-2.221698 1.199011-6.206647-2.186433-8.957321-46.44406-37.698329-83.049173-60.162161-84.812425-60.832196-4.584455-1.939577-8.710465-0.528976-9.239441 3.068058-0.493711 3.561769 2.785938 8.075695 7.335129 9.980007 0.387915 0.14106 35.229776 19.818953 75.925634 54.801875 3.949685 3.350179 8.922056 4.972371 11.884319 3.032793z m-112.671807-19.395773c0.42318 0.105795 35.406102 17.244605 73.280756 53.038623 3.597034 3.491239 8.88679 4.302335 12.87174 0.952156 0.599506-0.564241 1.163746-1.128481 1.586927-1.798517 2.433288-3.385444 2.997529-8.569405-0.176325-11.355344-43.728651-37.98045-80.157439-58.222584-81.885427-58.751559-4.831311-1.340072-9.944742 1.586927-11.531668 6.524033-1.516397 4.972371 1.057951 10.050537 5.853997 11.390608z"  horiz-adv-x="1024" />

    
    <glyph glyph-name="xiaochengxu" unicode="&#59056;" d="M512 768c-211.7 0-384-172.3-384-384s172.3-384 384-384 384 172.3 384 384-172.3 384-384 384z m0-717.4c-183.8 0-333.4 149.6-333.4 333.4S328.2 717.4 512 717.4 845.4 567.8 845.4 384 695.8 50.6 512 50.6zM702.9 561.1c-24.9 14.2-54.6 17.1-81.6 8.1-26.4-8.8-48-28.3-59.5-53.6L418 277.1l-1.6-3c-5.6-12.9-16.5-22.9-29.8-27.4-13.5-4.5-27.9-3.1-40.5 4.1-19.8 11.3-29.4 35.4-22.7 57.2 7.1 23 28.3 26.5 75.1 29l3.5 0.2c14 0.8 24.7 12.7 23.9 26.6-0.8 14-12.7 24.6-26.6 23.9l-3.4-0.2c-45.7-2.4-102.6-5.5-120.8-64.7-13.6-44.3 5.7-93.1 46-116 15.4-8.8 32.7-13.3 50-13.3 10.7 0 21.3 1.7 31.6 5.1 26.4 8.8 48 28.3 59.5 53.6L606 490.9l1.6 3c5.6 12.9 16.5 22.9 29.8 27.4 13.5 4.5 27.9 3.1 40.5-4.1 19.8-11.3 29.4-35.4 22.7-57.2-7.1-23.2-28.5-26.6-75.7-29.1l-2.8-0.1c-14-0.7-24.7-12.6-24-26.6 0.7-14 12.6-24.8 26.6-24l2.8 0.1c46 2.4 103.2 5.3 121.5 64.7 13.5 44.4-5.8 93.2-46.1 116.1z"  horiz-adv-x="1024" />

    
    <glyph glyph-name="diannao1" unicode="&#59269;" d="M96 774h832c17.673 0 32-14.327 32-32v-519c0-17.673-14.327-32-32-32H96c-17.673 0-32 14.327-32 32V742c0 17.673 14.327 32 32 32z m40-72v-439h752V702H136zM440 212h144v-142H440zM345 106m36 0l262 0q36 0 36-36l0 0q0-36-36-36l-262 0q-36 0-36 36l0 0q0 36 36 36Z"  horiz-adv-x="1024" />

    
    <glyph glyph-name="shouji1" unicode="&#59057;" d="M257.6 142.4v-91.2c0-17.6 6.4-30.4 17.6-43.2 11.2-11.2 25.6-17.6 41.6-17.6h420.8c17.6 0 30.4 6.4 41.6 17.6s17.6 25.6 17.6 43.2v91.2H257.6z m0 60.8H800V716.8c0 17.6-6.4 30.4-17.6 43.2-11.2 11.2-27.2 17.6-41.6 17.6H318.4c-17.6 0-30.4-6.4-41.6-17.6-11.2-11.2-17.6-25.6-17.6-43.2-1.6 0-1.6-513.6-1.6-513.6z m30.4-272c-25.6 0-46.4 9.6-64 27.2s-25.6 38.4-25.6 64V747.2c0 25.6 9.6 48 25.6 64 17.6 17.6 38.4 25.6 64 27.2h481.6c25.6 0 46.4-9.6 64-27.2s25.6-38.4 25.6-64v-724.8c0-25.6-9.6-48-25.6-64-17.6-17.6-38.4-25.6-64-27.2H288z m286.4 136c0-11.2-4.8-24-14.4-32-8-8-19.2-12.8-32-12.8s-22.4 4.8-32 12.8c-8 8-12.8 19.2-12.8 32s4.8 22.4 12.8 32c8 8 19.2 12.8 32 12.8s22.4-4.8 32-12.8c9.6-9.6 14.4-19.2 14.4-32z"  horiz-adv-x="1024" />

    
    <glyph glyph-name="iconset0457" unicode="&#59216;" d="M512 42.666667c-117.333333 0-213.333333 96-213.333333 213.333333 0 12.8-8.533333 21.333333-21.333333 21.333333-12.8 0-21.333333-8.533333-21.333333-21.333333 0-140.8 115.2-256 256-256 12.8 0 21.333333 8.533333 21.333333 21.333333C533.333333 34.133333 524.8 42.666667 512 42.666667zM512 853.333333C469.333333 853.333333 170.666667 490.666667 170.666667 256c0-187.733333 153.6-341.333333 341.333333-341.333333 187.733333 0 341.333333 153.6 341.333333 341.333333C853.333333 490.666667 554.666667 853.333333 512 853.333333zM512-42.666667c-164.266667 0-298.666667 138.666667-298.666667 309.333333C213.333333 469.333333 490.666667 802.133333 512 802.133333S810.666667 469.333333 810.666667 266.666667C810.666667 96 676.266667-42.666667 512-42.666667z"  horiz-adv-x="1024" />

    
    <glyph glyph-name="huo" unicode="&#59040;" d="M361.409 34.2c36.509-12.17 48.678 21.297 33.466 33.466-48.678 33.466-73.017 94.313-54.762 149.076 18.254 60.847 66.932 85.186 66.932 176.457 0 0 60.847-45.636 48.678-115.611 60.847 69.974 33.466 161.245 21.297 203.839 155.161-82.144 289.025-261.644 133.864-413.762-18.254-15.211 0-42.593 27.382-33.466 422.889 240.347 103.441 599.347 48.678 641.94 18.254-42.593 21.297-109.525-15.211-142.992-63.891 240.347-219.051 289.025-219.051 289.025 18.254-124.737-69.974-258.602-152.119-362.042-3.042 51.72-6.084 85.186-30.424 130.822-6.084-88.229-76.059-161.245-94.312-252.516-24.339-121.694 18.254-209.923 185.585-304.237v0z"  horiz-adv-x="1024" />

    
    <glyph glyph-name="fengshan" unicode="&#59027;" d="M457.085 436.716c1.929 1.916 19.923 21.075 26.705 27.66 14.06 13.655 27.832 24.354 43.571 32.82 19.096 10.27 36.569 30.294 46.56 52.11 4.225 9.226 6.559 17.722 6.855 23.683-15.19 10.698-38.455 18.393-61.105 19.65-25.435 1.413-45.52-5.208-56.305-18.15-13.068-15.682-20.816-45.463-20.13-78.19 0.525-25.07 6.072-47.618 13.277-60.148 0.188 0.184 0.378 0.372 0.572 0.565z m-17.67 157.732c38.406 46.087 125.21 32.103 165.034 0 22.53-18.162-7.576-95.266-62.32-124.71-54.743-29.444-73.753-91.316-102.714-62.355-33.394 33.394-39.538 139.62 0 187.065z m125.3-155.533c1.917-1.929 21.076-19.923 27.662-26.705 13.654-14.06 24.353-27.832 32.819-43.571 10.27-19.096 30.294-36.569 52.11-46.56 9.226-4.225 17.722-6.559 23.683-6.855 10.698 15.19 18.393 38.455 19.65 61.105 1.413 25.435-5.208 45.52-18.15 56.305-15.682 13.068-45.463 20.816-78.19 20.13-25.07-0.525-47.618-6.072-60.148-13.277 0.184-0.188 0.372-0.378 0.565-0.572z m157.733 17.67c46.087-38.406 32.103-125.21 0-165.034-18.162-22.53-95.266 7.576-124.71 62.32-29.444 54.743-91.316 73.753-62.355 102.714 33.394 33.394 139.62 39.538 187.065 0z m-155.533-125.3c-1.929-1.917-19.923-21.076-26.705-27.662-14.06-13.654-27.832-24.353-43.571-32.819-19.096-10.27-36.569-30.294-46.56-52.11-4.225-9.226-6.559-17.722-6.855-23.683 15.19-10.698 38.455-18.393 61.105-19.65 25.435-1.413 45.52 5.208 56.305 18.15 13.068 15.682 20.816 45.463 20.13 78.19-0.525 25.07-6.072 47.618-13.277 60.148-0.188-0.184-0.378-0.372-0.572-0.565z m17.67-157.733c-38.406-46.087-125.21-32.103-165.034 0-22.53 18.162 7.576 95.266 62.32 124.71 54.743 29.444 73.753 91.316 102.714 62.355 33.394-33.394 39.538-139.62 0-187.065z m-125.3 155.533c-1.917 1.929-21.076 19.923-27.662 26.705-13.654 14.06-24.353 27.832-32.819 43.571-10.27 19.096-30.294 36.569-52.11 46.56-9.226 4.225-17.722 6.559-23.683 6.855-10.698-15.19-18.393-38.455-19.65-61.105-1.413-25.435 5.208-45.52 18.15-56.305 15.682-13.068 45.463-20.816 78.19-20.13 25.07 0.525 47.618 6.072 60.148 13.277a142.54 142.54 0 0 1-0.565 0.572z m-157.733-17.67c-46.087 38.406-32.103 125.21 0 165.034 18.162 22.53 95.266-7.576 124.71-62.32 29.444-54.743 91.316-73.753 62.355-102.714-33.394-33.394-139.62-39.538-187.065 0z"  horiz-adv-x="1024" />

    
    <glyph glyph-name="app_icons--" unicode="&#59028;" d="M24.32 107.264c-0.4608 21.9648 10.24 35.84 28.672 46.08 36.8128 20.48 72.7552 42.5472 110.9504 65.0752-5.9392 17.4592-12.032 34.048-17.3056 51.2C91.8016 444.416 164.8128 639.488 318.9248 729.7024c48.2304 28.2624 101.5808 39.6288 156.1088 43.7248a1106.8416 1106.8416 0 0 0 458.496-62.5664c73.472-26.2144 82.432-40.6016 68.0448-118.0672a1198.08 1198.08 0 0 0-181.0432-446.8736c-137.472-207.8208-418.3552-202.9056-572.6208-45.6192-16.5376 16.7936-31.3856 35.4816-48.64 55.0912-36.864-21.7088-74.0352-42.8032-110.336-65.4336-18.176-11.3152-35.2256-13.6192-53.5552-2.2528l-11.0592 19.5584zM941.1584 628.0192c-7.3216 5.12-9.0624 6.4512-11.008 7.4752a74.1888 74.1888 0 0 1-10.24 4.6592c-153.1904 53.4016-310.016 78.6432-471.04 56.32a277.6576 277.6576 0 0 1-108.6464-39.8848C225.6384 583.0656 173.7216 435.2 210.6368 301.3632c4.0448-14.7456 9.5232-29.0816 15.36-46.08 69.4784 40.96 135.68 79.872 201.6256 119.2448a20.1728 20.1728 0 0 1 7.424 12.0832c13.4144 57.6 25.6 115.456 39.9872 172.8a31.1296 31.1296 0 0 0 46.592 18.2784c17.4592-10.24 19.8656-26.368 15.0528-45.0048-8.96-34.5088-17.5616-69.1712-27.6992-109.0048 11.6736 6.144 18.7392 9.5232 25.6 13.4144 37.632 22.0672 74.8544 44.9536 112.9472 66.1504 27.2896 15.36 55.4496-1.1776 55.2448-30.72 0-18.5344-12.2368-27.8016-26.1632-35.84l-197.2736-116.1216-19.8144-11.7248v-8.3968c32.6144-7.9872 65.3824-15.36 97.8432-24.2176 27.2384-7.168 39.4752-24.7808 33.536-46.08s-22.784-28.2112-50.3808-20.48c-50.4832 14.08-100.7104 28.6208-151.2448 42.5984-6.8096 1.8944-15.872 4.6592-21.0944 1.7408-35.328-19.5584-69.9392-40.5504-106.1376-61.9008 6.5024-8.2944 10.9056-14.1312 15.36-19.7632 121.4464-147.8656 369.1008-161.8944 486.4 16.4352a1133.1072 1133.1072 0 0 1 130.2016 270.4896c18.3296 56.32 31.9488 113.7152 47.1552 168.96z"  horiz-adv-x="1024" />

    
    <glyph glyph-name="feng" unicode="&#59029;" d="M934.532628 895.96359c161.467819 2.961376 290.166313-175.25521 186.906526-320.411187-84.350672-118.576413-358.787708-82.530154-558.29222-82.530154-57.771108 0-166.22544-16.190474-208.752743 7.282072-0.801028 5.655743-1.62633 11.335759-2.427357 16.991502 2.427357 3.228385 4.854715 6.481044 7.282072 9.70943 228.584253 39.93003 826.296758-113.2605 754.908175 199.043313-25.293065 110.663227-171.128702 178.726331-276.718752 97.094299-92.385226-71.412857-66.849425-217.83106 55.829222-240.30839 6.845148-13.059183 10.04926-23.424-4.854715-31.555647-79.228948-30.48761-160.011405 102.288844-138.359376 189.333883 16.724493 67.237802 56.848712 116.634527 116.513159 140.786734z m291.282897-145.641449c180.35266 3.349753 259.678703-218.365078 123.795231-315.556472-62.140351-44.444915-174.259993-36.434636-281.573467-36.410362H466.052635c-63.621039 0-234.555553-16.044833-276.718752 7.282073-0.801028 5.655743-1.62633 11.335759-2.427357 16.991502 2.427357 3.228385 4.854715 6.481044 7.282072 9.70943q401.679115 1.201542 803.455324 2.427357c87.409143-0.024274 207.514791-15.583635 281.573468 7.282073 103.502523 31.944024 143.14127 181.275056 43.692434 247.590462-22.453057 14.976796-92.14249 40.561143-118.940516 12.136788-12.889268-13.690296-2.572999-21.700576-26.700932-26.700933q-7.282072 8.483614-14.564145 16.991503c9.151138 39.978578 30.560431 42.017558 63.111294 58.256579zM12.136787 342.526085h813.164755c141.927592 0.024274 300.33694 12.306702 388.377196-41.265077 80.80673-49.153989 131.150124-188.872685 72.820724-303.419684-85.321615-167.609034-362.210282-171.177249-436.924346 9.70943-45.003208 108.939804 3.155565 220.428332 94.666942 247.590462 20.486897 6.092667 34.371382 8.932676 50.974507-2.427357v-2.427358c-0.728207-13.568928-2.475905-14.175768-7.282072-21.846217-110.469039-19.661596-155.108143-129.475248-92.239585-233.026318 33.327618-54.882553 86.486747-76.680223 162.632951-89.812226 182.682924-31.482826 291.962557 245.745671 157.778236 349.539476-71.801234 55.537939-188.02311 50.998781-317.983829 50.974507H286.428182c-65.05318 0-240.745314-16.506031-284.000825 7.282073-0.801028 5.655743-1.62633 11.335759-2.427357 16.991502z"  horiz-adv-x="1418" />

    
    <glyph glyph-name="yanjing" unicode="&#59030;" d="M657.05472 382.54592c-1.63328-74.81344-60.08832-133.26848-134.90176-134.90176s-133.30944 62.56128-134.89152 134.90176c-1.6384 74.80832 62.54592 133.31968 134.89152 134.90176 74.81344 1.6384 133.31456-62.55104 134.90176-134.90176 0.72192-32.96768 51.92704-33.03936 51.2 0-2.24768 102.93248-83.16416 183.84896-186.10176 186.10176-102.92224 2.2528-183.91552-86.56384-186.09152-186.10176-2.2528-102.92224 86.54848-183.92064 186.09152-186.10176 102.92736-2.24768 183.92576 86.55872 186.10176 186.10176 0.72704 33.03936-50.47808 32.96768-51.2 0zM977.43872 391.14752c-0.55808-0.75264-1.13152-1.50016-1.69984-2.24256 2.21696 2.90304 1.42848 1.82272-2.15552-2.67776a810.67008 810.67008 0 0 0-22.64576-27.0592c-25.01632-28.78464-51.88096-55.94112-80.00512-81.68448-77.0816-70.54848-168.1664-130.00704-270.78144-154.38848-200.68864-47.68768-389.13536 95.85664-513.24416 238.6432a782.99136 782.99136 0 0 0-20.40832 24.48896c-3.59936 4.49024-4.3776 5.57568-2.15552 2.67776a215.63392 215.63392 0 0 0-1.69984 2.24256v-25.84064c0.55808 0.75264 1.13152 1.50016 1.69984 2.24256-2.21696-2.89792-1.4336-1.82272 2.15552 2.67776a809.65632 809.65632 0 0 0 22.64576 27.0592c25.01632 28.78464 51.88096 55.94112 80.00512 81.68448 77.0816 70.54848 168.1664 130.00704 270.78656 154.3936 200.68864 47.68768 389.13024-95.86176 513.23904-238.64832a796.2624 796.2624 0 0 0 20.40832-24.48896c3.59936-4.49536 4.3776-5.57568 2.15552-2.67776 0.56832-0.74752 1.14176-1.48992 1.69984-2.24256 19.456-26.17856 63.92832-0.69632 44.2112 25.84064-91.47904 123.1104-223.22176 232.18688-369.42848 280.91392C439.30624 743.0144 234.26048 621.4144 88.9856 472.60672c-25.04192-25.64608-49.152-52.66432-70.54848-81.46432-4.87424-6.55872-4.87424-19.28704 0-25.84064C109.91616 242.19648 241.65888 133.12 387.87072 84.38784c212.9152-70.95296 417.95584 50.64704 563.23072 199.4496 25.04192 25.6512 49.152 52.66432 70.54848 81.46432 19.72224 26.53696-24.7552 52.02432-44.2112 25.84576z"  horiz-adv-x="1026" />

    
    <glyph glyph-name="ie" unicode="&#59217;" d="M734.207501 267.1709l236.062911 0c1.823992 16.383924 2.559988 33.087847 2.559988 50.207768 0 80.22363-21.535901 155.455283-59.135727 220.254984 38.879821 103.295524 37.503827 190.975119-14.559933 243.390877-49.503772 49.279773-182.303159 41.27981-332.414467-25.183884-11.103949 0.831996-22.303897 1.279994-33.631845 1.279994-206.04705 0-378.910252-141.791346-426.718032-332.862465C171.010098 507.009794 239.009785 567.009517 329.825366 610.689316c-8.255962-7.743964-56.44774-55.647743-64.575702-63.775706C25.730769 307.458715-49.820883-5.371842 31.490742-86.683467c61.791715-61.759715 173.759199-51.327763 302.366605 11.647946 59.807724-30.463859 127.487412-47.61578 199.231081-47.61578 193.119109 0 356.798354 124.319427 416.094081 297.438628L711.295606 174.787327c-32.735849-60.383721-96.735554-101.471532-170.207215-101.471532-73.471661 0-137.471366 41.08781-170.207215 101.471532-14.559933 27.263874-22.911894 58.55973-22.911894 91.647577l0 0.735997L734.207501 267.1709zM348.289281 383.202365c5.471975 97.119552 86.207602 174.591195 184.767148 174.591195 98.559545 0 179.327173-77.471643 184.767148-174.591195L348.289281 383.202365zM896.95875 732.192756c33.535845-33.887844 32.703849-96.223556 3.999982-174.015197-49.151773 74.911654-120.511444 133.951382-204.799055 167.647227C786.30326 764.448607 859.582922 769.568583 896.95875 732.192756zM93.474456-71.259539c-42.783803 42.783803-29.887862 132.607388 25.215884 240.830889 34.303842-96.255556 101.151533-177.087183 187.327136-229.150943C210.625916-102.875393 132.514276-110.235359 93.474456-71.259539z"  horiz-adv-x="1024" />

    
    <glyph glyph-name="yundong" unicode="&#59399;" d="M517.482667 653.568c66.858667 0 121.237333 54.378667 121.237333 121.216C638.698667 841.621333 584.298667 896 517.482667 896c-66.837333 0-121.216-54.378667-121.216-121.216C396.266667 707.946667 450.645333 653.568 517.482667 653.568zM517.482667 853.290667c43.306667 0 78.485333-35.221333 78.485333-78.485333 0-43.285333-35.157333-78.485333-78.485333-78.485333-43.285333 0-78.485333 35.221333-78.485333 78.485333C438.997333 818.069333 474.197333 853.290667 517.482667 853.290667zM817.002667-36.394667l-203.285333 293.653333 0 141.504 38.464-38.464c1.621333-1.664 3.498667-3.008 5.546667-4.010667l59.541333-29.781333c8.490667-4.245333 17.749333-6.421333 27.050667-6.421333 7.872 0 15.701333 1.514667 23.082667 4.629333 16.256 6.698667 28.672 20.096 34.24 36.714667 9.365333 28.373333-3.584 59.84-30.293333 73.237333l-64.490667 32.213333-96.704 145.066667c-0.426667 0.618667-1.045333 0.938667-1.493333 1.493333-0.896 1.109333-1.856 2.048-2.965333 2.965333-1.109333 0.896-2.218667 1.664-3.456 2.325333-1.130667 0.618667-2.282667 1.066667-3.541333 1.450667-1.429333 0.448-2.858667 0.746667-4.373333 0.896-0.682667 0.064-1.28 0.405333-1.962667 0.405333l-149.781333 0c-4.992 0-9.834667-1.749333-13.674667-4.949333l-149.781333-124.821333c-2.261333-1.898667-4.096-4.202667-5.418667-6.869333l-61.930667-123.861333c-12.437333-24.789333-2.325333-55.104 22.528-67.584 22.698667-11.392 52.672-2.624 65.685333 19.136l57.898667 96.448 63.36 31.68 0-186.666667-43.968-131.861333L255.36 122.133333c-32.405333 0-58.794667-26.346667-58.794667-58.794667s26.368-58.858667 58.794667-58.858667l212.181333 0c6.72 0 13.077333 3.221333 17.066667 8.597333l62.912 83.818667 177.472-204.778667c11.050667-12.8 27.114667-20.117333 44.032-20.117333 15.616 0 30.293333 6.037333 41.258667 17.109333C830.250667-90.965333 833.088-59.648 817.002667-36.394667zM682.688 431.168l69.568-34.730667c7.765333-3.925333 11.626667-13.162667 8.810667-21.461333-2.218667-6.656-7.210667-9.578667-10.005333-10.730667-2.730667-1.258667-8.405333-2.645333-14.677333 0.490667l-56.448 28.202667-66.218667 66.197333 0 70.378667 60.778667-91.114667C676.522667 435.328 679.424 432.832 682.688 431.168zM456.874667 47.232 255.36 47.232c-8.874667 0-16.064 7.210667-16.064 16.085333s7.189333 16.064 16.064 16.064l137.301333 0c9.194667 0 17.365333 5.930667 20.266667 14.634667l38.08 114.218667 67.882667-78.314667L456.874667 47.232zM780.117333-80.704c-2.965333-2.944-6.869333-4.565333-11.093333-4.565333-2.666667 0-7.701333 0.704-11.797333 5.397333L463.957333 258.538667l-0.021333 216.746667c0 7.424-3.861333 14.293333-10.133333 18.176-6.293333 3.882667-14.165333 4.245333-20.778667 0.938667l-99.84-49.941333c-3.648-1.813333-6.677333-4.650667-8.768-8.128l-61.098667-101.781333c-2.56-4.288-6.997333-4.373333-9.92-2.965333-3.754667 1.856-5.290667 6.506667-3.413333 10.24l59.946667 119.850667 140.394667 116.992 120.682667 0 0-328.106667c0-4.330667 1.344-8.576 3.797333-12.16l207.125333-299.093333C786.218667-66.965333 785.450667-75.370667 780.117333-80.704z"  horiz-adv-x="1024" />

    
    <glyph glyph-name="service" unicode="&#59323;" d="M516.080945 125.456572c4.373611 0 8.823969 0.26913 13.299911 0.797156 42.959418 5.15951 79.437214 35.18536 92.89983 76.561723 1.016143 3.093455-0.452301 6.408967-3.413749 7.770987-2.931772 1.36509-6.477528 0.183172-8.132214-2.591011-0.158612-0.264013-17.226337-27.832905-83.670631-36.806277-9.945513-1.335415-19.623943-2.035356-28.79686-2.035356-46.552246 0.029676-67.298755 17.575284-67.48602 17.736966-2.342348 2.082428-5.916756 2.137687-8.320503 0.107447-2.423189-2.02717-2.981914-5.555529-1.330298-8.252964C441.396989 145.890974 477.759151 125.456572 516.080945 125.456572L516.080945 125.456572 516.080945 125.456572zM516.080945 125.456572M873.350908 537.244196c-0.588401 0-1.122567-0.106424-1.677199-0.106424C832.742025 705.688583 683.97991 831.418123 505.626849 831.418123c-183.260837 0-335.435679-132.675742-369.160781-308.199361-32.794917-5.901407-57.757448-34.723849-57.757448-69.585845l0-139.514497c0-39.102576 31.357172-70.809719 70.074985-70.809719 21.839401 0 41.116443 10.31288 53.93847 26.151613 30.985712-81.954547 94.065376-148.032498 173.894516-182.89347 0.191358 0.414439 1.701758 3.354398 3.51915 5.696746 1.25969 1.62194 2.667759 2.952238 3.874237 2.952238 1.255597 0 2.4017-0.452301 3.384074-1.147126-18.475793 13.755282-85.210707 84.463694-99.666954 183.135994-6.345522 43.433208 26.185382 86.068238 64.071248 93.116771 60.821227 11.329023 121.325229 24.227798 182.146457 35.337833 38.661531 7.054673 65.083298 28.260647 81.242326 63.573921 3.78521 8.256034 9.250688 24.949228 11.758812 49.018414 0.666172 3.579525 3.601015 6.328126 7.361665 6.328126 2.509147 0 4.64274-1.280156 6.054903-3.128247l1.677199 1.045819c23.970948-34.80469 71.513754-111.865787 78.341253-193.124486 7.837502-92.903923 3.463891-156.532079-67.64361-221.62868-0.084934-0.080841-0.192382-0.183172-0.294712-0.26913-0.989537-1.063215-1.573845-2.453888-1.573845-3.977591 0-2.001587 1.066285-3.711532 2.611477-4.752234 0.584308-0.243547 1.172709-0.563842 1.762133-0.806365 0.476861-0.107447 0.934279-0.260943 1.412163-0.260943 0.481977 0 0.908696 0.154519 1.334391 0.260943 1.01205 0.533143 1.971911 1.151219 2.957355 1.685385 71.91489 39.617299 127.081327 105.776092 152.571884 185.354522 10.321066-15.331173 26.477025-26.365484 45.246507-30.214139C828.662103 117.844198 706.543811 32.152537 555.252083 19.142222c-9.067516 22.491247-31.383778 38.46608-57.595766 38.46608-34.233686 0-61.993936-27.117614-61.993936-60.530608 0-33.414017 27.756157-60.496839 61.993936-60.496839 27.598568 0 50.717102 17.732873 58.738799 42.092677C731.526809-7.08614 871.91214 97.009683 901.216559 258.746298c25.892717 10.821463 44.073798 36.222993 44.073798 65.87329L945.290357 465.785701C945.290357 505.242342 913.079748 537.244196 873.350908 537.244196L873.350908 537.244196 873.350908 537.244196zM808.744471 496.695688c-45.677319 123.727952-164.03803 212.117049-303.275211 212.117049-138.65799 0-256.591983-87.639013-302.691927-210.568786-2.296299 2.807952-4.983501 5.210675-7.624654 7.637957 26.100448 149.802818 155.021679 263.700891 310.473147 263.700891 154.705478 0 283.225573-112.778576 310.183552-261.536598C813.143665 504.466676 810.689776 500.728538 808.744471 496.695688L808.744471 496.695688 808.744471 496.695688zM808.744471 496.695688M376.629893 86.567867l-0.01228 0C376.591007 86.504422 376.591007 86.495212 376.629893 86.567867L376.629893 86.567867 376.629893 86.567867zM376.629893 86.567867"  horiz-adv-x="1024" />

    
    <glyph glyph-name="qitaleiqixiangjiancedian" unicode="&#59864;" d="M512 640C370.624 640 256 525.376 256 384c0-141.376 114.624-256 256-256 141.376 0 256 114.624 256 256C768 525.376 653.376 640 512 640zM512 192c-105.856 0-192 86.144-192 192s86.144 192 192 192c105.856 0 192-86.144 192-192S617.856 192 512 192zM544 768l-64 0L480 896l64 0L544 768zM480 0l64 0 0-128-64 0L480 0zM1024 416l0-64-128 0 0 64L1024 416zM128 352 0 352l0 64 128 0L128 352zM806.144 632.896l-45.248 45.248 90.496 90.496 45.248-45.248L806.144 632.896zM217.856 135.104l45.248-45.248L172.608-0.64 127.36 44.608 217.856 135.104zM217.856 632.896 127.36 723.392 172.608 768.64l90.496-90.496L217.856 632.896zM806.144 135.104l90.496-90.496-45.248-45.248-90.496 90.496L806.144 135.104z"  horiz-adv-x="1024" />

    
    <glyph glyph-name="qixiangjiance" unicode="&#59047;" d="M786.89375 420.28125a256.33125 256.33125 0 0 1-285.8625 118.4625 162.5625 162.5625 0 1 1-237.9375-220.89375 159.69375 159.69375 0 0 1-57.825-122.85 160.3125 160.3125 0 0 1 129.43125-156.43125v-2.75625h434.53125a192.9375 192.9375 0 0 1 192.825 192.825 194.0625 194.0625 0 0 1-175.1625 191.64375zM366.59375 300.29999999999995l2.75625 19.8a198.39375 198.39375 0 0 0 66.09375 121.1625 199.6875 199.6875 0 0 0 130.5 49.05c60.6375 0 118.40625-28.125 155.86875-74.925a195.91875 195.91875 0 0 1-107.94375-72.1125 28.85625 28.85625 0 0 1-5.45625-21.0375 28.125 28.125 0 0 1 50.68125-12.65625 134.8875 134.8875 0 0 0 109.0125 55.06875c74.925 0 136.125-61.0875 136.125-136.0125s-61.2-136.125-136.125-136.125H363.8375a102.825 102.825 0 0 0-101.3625 102.4875c0 49.55625 35.2125 91.96875 84.2625 100.74375l19.85625 4.44375v0.1125zM271.30625 433.5c0 58.3875 47.925 106.3125 106.36875 106.3125 24.69375 0 48.43125-8.775 66.6-23.68125a262.85625 262.85625 0 0 1-46.29375-31.95 260.8875 260.8875 0 0 1-81.50625-136.575c-0.5625 0-0.5625 0-1.125-0.5625a106.3125 106.3125 0 0 0-44.04375 86.45625z m275.9625 143.2125h0.5625a27.16875 27.16875 0 0 1 19.8 8.2125l35.2125 33.6375a28.74375 28.74375 0 0 1 0.5625 40.78125 28.74375 28.74375 0 0 1-40.78125 0.5625l-35.26875-33.6375a28.85625 28.85625 0 0 1-0.5625-40.725 29.1375 29.1375 0 0 1 20.475-8.83125zM369.9125 642.24375a28.06875 28.06875 0 0 1 28.575 28.63125v49.05a28.74375 28.74375 0 0 1-28.63125 28.63125 28.74375 28.74375 0 0 1-28.63125-28.63125v-48.99375a28.51875 28.51875 0 0 1 28.6875-28.6875zM140.24375 474.28125l-48.4875 1.63125a28.9125 28.9125 0 0 1-22.05-48.43125 28.575 28.575 0 0 1 20.41875-8.83125l50.11875-1.63125a28.35 28.35 0 0 1 28.63125 28.125 29.3625 29.3625 0 0 1-28.63125 29.1375zM220.0625 605.9625a28.74375 28.74375 0 0 1-8.775 20.30625l-35.26875 33.6375a28.4625 28.4625 0 0 1-40.78125-0.5625 28.575 28.575 0 0 1 0.5625-40.78125l35.26875-33.6375a28.9125 28.9125 0 0 1 48.99375 21.0375z m0 0"  horiz-adv-x="1024" />

    
    <glyph glyph-name="qixiangjiance1" unicode="&#59043;" d="M506.4 761.6L79.9 648.5c-10.1-2.8-9.6-17.3 0.6-19.4l64.1-13.3c12-2.5 20.6-13 20.6-25.3l20.3-113.7c0.1-18.1 18.1-30.5 35-24.2L513 568c5.9 2.2 12.3 2.2 18.2 0l273.6-106.6c16.9-6.3 34.9 6.2 34.9 24.2L859.2 614h0.1l86.2 20.4c10.1 2.4 10.3 16.7 0.3 19.4L520 761.7c-4.5 1.2-9.2 1.1-13.6-0.1zM195.2 396.5l0.4-75.7c0-7 7-11.7 13.5-9.3l304 118.5c5.9 2.2 12.3 2.2 18.2 0l286-109.6c6.5-2.4 13.4 2.4 13.5 9.3l-0.6 72.7c0 4.2-2.6 8-6.5 9.4L527.3 526.1c-5.9 2.2-12.4 2.2-18.2 0L201.7 406c-3.9-1.5-6.5-5.3-6.5-9.5zM195.2 258.5l0.4-75.7c0-7 7-11.7 13.5-9.3l304 118.5c5.9 2.2 12.3 2.2 18.2 0l286-109.6c6.5-2.4 13.4 2.4 13.5 9.3l0.4 72.7c0 4.2-2.6 8-6.5 9.4L527.3 388.1c-5.9 2.2-12.4 2.2-18.2 0L201.7 268c-3.9-1.5-6.5-5.3-6.5-9.5zM195.2 120.5l0.2-52.8c0.1-18 18.2-30.4 35-24.1L513 154c5.9 2.2 12.3 2.2 18.2 0L796 52.4c16.9-6.3 34.8 6.1 34.9 24.1l0.2 50c0 4.2-2.6 8-6.5 9.4L527.3 250.1c-5.9 2.2-12.4 2.2-18.2 0L201.7 130c-3.9-1.5-6.5-5.3-6.5-9.5zM749 40.4l-218.2 77c-5.6 2-11.6 2-17.2 0.1l-237.9-81.6c-5.1-1.8-4.2-9.2 1.1-9.7l168-12.7c13.2-1.3 11.7-28-2.6-28h-13.1c-33.1 0-60-6.9-60-40v-8c0-2.8 2.2-5 5-5h276c2.8 0 5 2.2 5 5v8c0 33.1-26.9 40-60 40H582c-14.3 0-16.3 25.7-3.5 27.5L748 30.7c5.2 0.7 5.9 7.9 1 9.7z"  horiz-adv-x="1024" />

    
    <glyph glyph-name="daohanggerenzhongxin" unicode="&#59031;" d="M919.256367-159.476126c-19.278038 0-34.907718 15.628656-34.907718 34.907718 0 205.311569-167.032985 372.344554-372.344554 372.344554-205.310545 0-372.34353-167.032985-372.34353-372.344554 0-19.279062-15.628656-34.907718-34.906694-34.907718s-34.906694 15.628656-34.906694 34.907718c0 59.676214 11.694613 117.585077 34.761292 172.120003 22.271065 52.655964 54.14787 99.939227 94.743669 140.534002 40.595799 40.595799 87.878037 72.472604 140.535026 94.743669 54.533902 23.065655 112.442765 34.761292 172.118979 34.761292 59.676214 0 117.585077-11.694613 172.120003-34.761292 52.655964-22.271065 99.939227-54.14787 140.534002-94.743669 40.595799-40.595799 72.472604-87.878037 94.743669-140.534002 23.065655-54.533902 34.761292-112.443789 34.761292-172.120003C954.164085-143.84747 938.536453-159.476126 919.256367-159.476126zM512.254965 247.5263c-68.380872 0-132.665916 26.625954-181.012045 74.973107-48.347153 48.347153-74.974131 112.632197-74.974131 181.013069 0 68.371656 26.625954 132.653629 74.973107 181.003854 48.350225 48.353297 112.635269 74.983347 181.013069 74.983347 68.378824 0 132.664892-26.629026 181.014093-74.983347 48.347153-48.350225 74.973107-112.632197 74.973107-181.003854 0-68.380872-26.626978-132.665916-74.974131-181.013069S580.635837 247.5263 512.254965 247.5263zM512.254965 689.684241c-102.654761 0-186.171765-83.51598-186.171765-186.171765 0-102.654761 83.517004-186.171765 186.171765-186.171765 102.655784 0 186.171765 83.517004 186.171765 186.171765C698.42673 606.168261 614.91075 689.684241 512.254965 689.684241z"  horiz-adv-x="1024" />

    
    <glyph glyph-name="daohang" unicode="&#59032;" d="M605.848435-62.708971c-0.36225 0-0.724501 0.008186-1.088798 0.026606-9.098215 0.468674-16.872273 6.712889-19.288299 15.495926L476.898551 347.541647 80.07064 458.16514c-8.760524 2.442632-14.976086 10.218736-15.427364 19.304671-0.451278 9.083889 4.965082 17.437138 13.44215 20.73423L929.251056 829.271226c7.80885 3.038196 16.669658 1.174756 22.597671-4.750187 5.922896-5.92392 7.788383-14.789844 4.751211-22.597671L625.531729-49.241238C622.361527-57.390849 614.518908-62.708971 605.848435-62.708971zM152.537092 481.827049l347.232352-96.79658c7.148817-1.9934 12.726859-7.591909 14.696724-14.746866l94.821599-344.730369 290.525839 746.93166L152.537092 481.827049z"  horiz-adv-x="1024" />

    
    <glyph glyph-name="weixin" unicode="&#59033;" d="M693.12 548.736c11.776 0 23.36-0.896 35.008-2.176-31.36 146.048-187.456 254.528-365.696 254.528C163.2 801.088 0 665.344 0 492.864c0-99.52 54.272-181.248 145.024-244.736L108.8 139.136l126.72 63.488c45.312-8.896 81.664-18.112 126.912-18.112 11.392 0 22.656 0.512 33.792 1.344-7.04 24.256-11.2 49.6-11.2 76.032C385.088 420.224 521.024 548.736 693.12 548.736zM498.304 646.976c27.392 0 45.376-17.984 45.376-45.248 0-27.136-17.984-45.312-45.376-45.312-27.072 0-54.336 18.176-54.336 45.312C443.968 629.056 471.168 646.976 498.304 646.976zM244.672 556.416c-27.2 0-54.592 18.176-54.592 45.312 0 27.264 27.392 45.248 54.592 45.248S289.92 629.056 289.92 601.728C289.92 574.592 271.872 556.416 244.672 556.416zM1024 266.24c0 144.896-145.024 262.976-307.904 262.976-172.48 0-308.224-118.144-308.224-262.976 0-145.28 135.808-262.976 308.224-262.976 36.096 0 72.512 9.024 108.736 18.112l99.392-54.528-27.264 90.624C969.728 112.128 1024 184.512 1024 266.24zM616.128 311.616c-17.984 0-36.224 17.92-36.224 36.224 0 18.048 18.24 36.224 36.224 36.224 27.52 0 45.376-18.176 45.376-36.224C661.504 329.536 643.648 311.616 616.128 311.616zM815.488 311.616c-17.856 0-36.032 17.92-36.032 36.224 0 18.048 18.112 36.224 36.032 36.224 27.264 0 45.376-18.176 45.376-36.224C860.864 329.536 842.752 311.616 815.488 311.616z"  horiz-adv-x="1024" />

    
    <glyph glyph-name="shujudaping" unicode="&#59202;" d="M94.3 694.9V137h828.5V694.9H94.3z m794.6-524.1H128.1V661.1h760.8v-490.3z m-169.1 355c-18.7 0-33.8-15.1-33.8-33.8 0-4.1 0.7-8 2-11.6L558.6 379.8c-6.2 6.6-15 10.8-24.8 10.8-9.3 0-17.8-3.8-23.9-9.9l-63.6 63.6c1.9 4.2 3 9 3 13.9 0 18.7-15.1 33.8-33.8 33.8-18.7 0-33.8-15.1-33.8-33.8 0-4.3 0.8-8.4 2.3-12.2l-79.2-66c-6.2 6.5-14.9 10.6-24.5 10.6-18.7 0-33.8-15.1-33.8-33.8s15.1-33.8 33.8-33.8c18.7 0 33.8 15.1 33.8 33.8 0 4.3-0.8 8.4-2.3 12.2l79.2 66c6.2-6.5 14.9-10.6 24.5-10.6 9.3 0 17.8 3.8 23.9 9.9l63.6-63.6c-1.9-4.2-3-9-3-13.9 0-18.7 15.1-33.8 33.8-33.8 18.7 0 33.8 15.1 33.8 33.8 0 4.1-0.7 8-2 11.6L695.1 469c6.2-6.6 15-10.8 24.8-10.8 18.7 0 33.8 15.1 33.8 33.8s-15.2 33.8-33.9 33.8zM280.2 339.9c-9.3 0-16.9 7.6-16.9 16.9s7.6 16.9 16.9 16.9c9.3 0 16.9-7.6 16.9-16.9s-7.5-16.9-16.9-16.9z m135.3 101.4c-9.3 0-16.9 7.6-16.9 16.9s7.6 16.9 16.9 16.9 16.9-7.6 16.9-16.9-7.6-16.9-16.9-16.9z m118.4-101.4c-9.3 0-16.9 7.6-16.9 16.9s7.6 16.9 16.9 16.9 16.9-7.6 16.9-16.9-7.6-16.9-16.9-16.9z m185.9 135.2c-9.3 0-16.9 7.6-16.9 16.9 0 9.3 7.6 16.9 16.9 16.9 9.3 0 16.9-7.6 16.9-16.9 0-9.3-7.5-16.9-16.9-16.9z m-120.4-355l35.9-101.4H364.8l35.9 101.4H365l-50.9-135.3h372l-50.9 135.3h-35.8zM872 644.2H145v-16.9h727v16.9z"  horiz-adv-x="1024" />

    
    <glyph glyph-name="duanxin" unicode="&#58884;" d="M534.828313 522.889173a68.575259 68.575259 0 1 1 0.04516-137.060198 68.575259 68.575259 0 0 1-0.04516 137.060198z m-228.48635 0a68.575259 68.575259 0 1 1 0.045159-137.150518 68.575259 68.575259 0 0 1-0.045159 137.150518zM923.270915 842.779096H100.706505A91.380992 91.380992 0 0 1 9.325513 751.398104V203.02183a91.380992 91.380992 0 0 1 91.380992-91.380992h228.486351v-228.486351l304.648467 228.486351h289.407012a91.426152 91.426152 0 0 1 91.403572 91.380992V751.375524a91.380992 91.380992 0 0 1-91.380992 91.403572z m45.701786-594.07806a91.426152 91.426152 0 0 0-91.403572-91.403572H618.599868L374.894642-25.4871v182.784564H146.408291a91.403572 91.403572 0 0 0-91.380992 91.403572V705.673738a91.380992 91.380992 0 0 0 91.380992 91.380992h731.160838a91.448732 91.448732 0 0 0 91.403572-91.380992v-456.972702z m-205.658037 274.188137a68.575259 68.575259 0 1 1 0.06774-137.127938 68.575259 68.575259 0 0 1-0.06774 137.127938z"  horiz-adv-x="1024" />

    
    <glyph glyph-name="iconset0128" unicode="&#59034;" d="M128 716.8l43.008 0 0 43.008-43.008 0L128 716.8zM128 549.888l43.008 0 0 43.008-43.008 0L128 549.888zM128 635.904l43.008 0 0 43.008-43.008 0L128 635.904zM171.008 132.096l-43.008 0 0-43.008 43.008 0L171.008 132.096zM171.008 299.008l-43.008 0 0-43.008 43.008 0L171.008 299.008zM171.008 51.2l-43.008 0 0-43.008 43.008 0L171.008 51.2zM128 468.992l43.008 0 0 43.008-43.008 0L128 468.992zM171.008 218.112l-43.008 0 0-43.008 43.008 0L171.008 218.112zM836.608 635.904l43.008 0 0 43.008-43.008 0L836.608 635.904zM836.608 716.8l43.008 0 0 43.008-43.008 0L836.608 716.8zM836.608 549.888l43.008 0 0 43.008-43.008 0L836.608 549.888zM878.592 299.008l-43.008 0 0-43.008 43.008 0L878.592 299.008zM878.592 840.704 128 840.704c-47.104 0-84.992-37.888-84.992-84.992l0-750.592c0-47.104 37.888-84.992 84.992-84.992l750.592 0c47.104 0 84.992 38.912 84.992 84.992L963.584 759.808C960.512 806.912 925.696 840.704 878.592 840.704zM212.992-33.792l-84.992 0c-21.504 0-43.008 17.408-43.008 43.008L84.992 362.496l128 0L212.992-33.792zM212.992 405.504 84.992 405.504 84.992 759.808c0 21.504 17.408 43.008 43.008 43.008l84.992 0L212.992 405.504zM750.592-33.792 251.904-33.792 251.904 362.496l499.712 0L751.616-33.792zM750.592 405.504 251.904 405.504 251.904 801.792l499.712 0L751.616 405.504zM921.6 8.192c0-21.504-17.408-43.008-43.008-43.008l-84.992 0L793.6 362.496l123.904 0 0-354.304L921.6 8.192zM921.6 405.504 797.696 405.504 797.696 801.792l84.992 0c21.504 0 43.008-17.408 43.008-43.008l0-354.304L921.6 404.48zM836.608 468.992l43.008 0 0 43.008-43.008 0L836.608 468.992zM878.592 218.112l-43.008 0 0-43.008 43.008 0L878.592 218.112zM878.592 132.096l-43.008 0 0-43.008 43.008 0L878.592 132.096zM878.592 51.2l-43.008 0 0-43.008 43.008 0L878.592 51.2z"  horiz-adv-x="1024" />

    
    <glyph glyph-name="wenjian" unicode="&#58880;" d="M858.114245 666.189987c-0.004093 0.064468-0.011257 0.127913-0.01535 0.192382-0.036841 0.615007-0.097218 1.223874-0.171922 1.827625-0.011257 0.086981-0.02149 0.173962-0.032747 0.260943-0.376592 2.826372-1.15536 5.52176-2.281043 8.029884-0.005117 0.011256-0.010233 0.022513-0.01535 0.033769-0.557725 1.240247-1.199364 2.435469-1.917754 3.576455-0.078798 0.124843-0.157596 0.248663-0.23844 0.37146-0.314168 0.481977-0.637546 0.956791-0.979344 1.417279-0.125872 0.170892-0.257884 0.337691-0.387849 0.505513-0.25686 0.332575-0.520884 0.660032-0.791048 0.980327-0.195459 0.233314-0.393989 0.463558-0.597635 0.690732-0.191366 0.212848-0.388872 0.417509-0.585355 0.623193-0.212856 0.225127-0.413433 0.457418-0.634476 0.676405L689.67626 842.342939c-4.525245 4.585435-10.560953 7.66968-17.301747 8.456602-0.01842 0.002047-0.035817 0.004093-0.054237 0.00614-0.655966 0.075725-1.316026 0.13303-1.983249 0.163729-0.148385 0.007163-0.296771 0.00614-0.445156 0.011256-0.309051 0.00921-0.618102 0.023536-0.9292 0.023536L188.712558 851.004203c-16.079869 0-29.109137-13.028735-29.109137-29.123294l0-873.794c0-16.093537 13.029268-29.122271 29.109137-29.122271l640.339624 0c16.079869 0 29.108114 13.028735 29.108114 29.122271L858.160296 664.579303C858.160296 665.119609 858.142899 665.656845 858.114245 666.189987zM698.072832 752.446513l59.786044-58.730613-59.786044 0L698.072832 752.446513zM799.940998-22.77547 217.807369-22.77547 217.807369 792.758638l422.046165 0 0-128.179334c0-16.093537 13.058945-29.122271 29.109137-29.122271l130.978327 0L799.940998-22.77547zM717.886898 380.038782 314.515813 380.038782c-16.079869 0-29.109137-13.028735-29.109137-29.123294 0-16.107863 13.029268-29.136597 29.109137-29.136597l403.370061 0c16.053262 0 29.111184 13.027711 29.111184 29.136597C746.998082 367.010047 733.939137 380.038782 717.886898 380.038782zM285.406676 473.25072c0-16.107863 13.029268-29.136597 29.109137-29.136597l403.370061 0c16.053262 0 29.111184 13.028735 29.111184 29.136597 0 16.09456-13.058945 29.123294-29.111184 29.123294L314.515813 502.374014C298.435944 502.374014 285.406676 489.344257 285.406676 473.25072zM717.886898 257.731178 314.515813 257.731178c-16.079869 0-29.109137-13.027711-29.109137-29.121248 0-16.107863 13.029268-29.136597 29.109137-29.136597l403.370061 0c16.053262 0 29.111184 13.027711 29.111184 29.136597C746.998082 244.702444 733.939137 257.731178 717.886898 257.731178zM717.886898 135.396969 314.515813 135.396969c-16.079869 0-29.109137-13.028735-29.109137-29.123294 0-16.10684 13.029268-29.136597 29.109137-29.136597l403.370061 0c16.053262 0 29.111184 13.028735 29.111184 29.136597C746.998082 122.367211 733.939137 135.396969 717.886898 135.396969z"  horiz-adv-x="1024" />

    
    <glyph glyph-name="chuli" unicode="&#59035;" d="M510.7 790.9c-224.5 0-406.5-182-406.5-406.5s182-406.5 406.5-406.5 406.5 182 406.5 406.5-182 406.5-406.5 406.5z m184.7-480.4H473.7c-20.4 0-36.9 16.5-36.9 36.9V606.1c0 20.4 16.5 36.9 36.9 36.9s36.9-16.5 36.9-36.9v-221.7h184.8c20.4 0 37-16.6 36.9-37 0.1-20.4-16.5-36.9-36.9-36.9z m0 0"  horiz-adv-x="1024" />

    
    <glyph glyph-name="tongguo" unicode="&#59036;" d="M449.998901 199.953264 269.13567 380.630253 337.436242 449.00041 449.998901 336.551338 685.163875 571.479929 753.466494 503.109772 449.998901 199.953264ZM511.301082 828.843484c-244.732887 0-443.1274-198.394513-443.1274-443.1274s198.394513-443.1274 443.1274-443.1274 443.1274 198.395536 443.1274 443.1274S756.033969 828.843484 511.301082 828.843484zM511.301082 7.424342c-208.925357 0-378.292766 169.367409-378.292766 378.292766s169.367409 378.291742 378.292766 378.291742c208.925357 0 378.291742-169.367409 378.291742-378.291742S720.226438 7.424342 511.301082 7.424342z"  horiz-adv-x="1024" />

    
    <glyph glyph-name="shangchuan" unicode="&#59037;" d="M768.35456 480a256 256 0 1 1-512 0 192 192 0 1 1 0-384v-64a256 256 0 0 0-58.88 505.216 320.128 320.128 0 0 0 629.76 0A256.128 256.128 0 0 0 768.35456 32v64a192 192 0 0 1 0 384z m-512-384h128v-64H256.35456v64z m384 0h128v-64h-128v64zM539.04256 306.816v-333.056a32.448 32.448 0 0 0-32-32.192 32.448 32.448 0 0 0-32 32.192V306.816l-36.096-36.096a32.192 32.192 0 0 0-45.056 0.192 31.616 31.616 0 0 0-0.192 45.056l90.88 90.88a31.36 31.36 0 0 0 22.528 9.152 30.08 30.08 0 0 0 22.4-9.088l90.88-90.944a32.192 32.192 0 0 0-0.192-45.056 31.616 31.616 0 0 0-45.056-0.192l-36.096 36.096z"  horiz-adv-x="1024" />

    
    <glyph glyph-name="fenlei" unicode="&#59038;" d="M457.386667 743.537778V486.4c0-38.684444-29.582222-68.266667-65.991111-68.266667H147.911111c-36.408889 0-65.991111 29.582222-65.991111 68.266667V743.537778c0 38.684444 29.582222 68.266667 65.991111 68.266666h245.76c34.133333 0 63.715556-31.857778 63.715556-68.266666zM605.297778 418.133333h245.76c36.408889 0 65.991111 29.582222 65.991111 68.266667V743.537778c0 38.684444-29.582222 68.266667-65.991111 68.266666H605.297778c-36.408889 0-65.991111-29.582222-65.991111-68.266666V486.4c2.275556-36.408889 29.582222-68.266667 65.991111-68.266667z m-213.902222-68.266666H147.911111c-36.408889 0-65.991111-31.857778-65.991111-68.266667v-254.862222c0-38.684444 29.582222-68.266667 65.991111-68.266667h245.76c36.408889 0 65.991111 29.582222 65.991111 68.266667V281.6c-2.275556 36.408889-31.857778 68.266667-68.266666 68.266667z m466.488888 0H614.4c-36.408889 0-65.991111-31.857778-65.991111-68.266667v-254.862222c0-38.684444 29.582222-68.266667 65.991111-68.266667h245.76c36.408889 0 65.991111 29.582222 65.991111 68.266667V281.6c-2.275556 36.408889-31.857778 68.266667-68.266667 68.266667z"  horiz-adv-x="1024" />

    
    <glyph glyph-name="xinzeng" unicode="&#59039;" d="M768 128V288a32 32 0 1 0 64 0V128h160a32 32 0 1 0 0-64H832v-160a32 32 0 1 0-64 0V64H608a32 32 0 1 0 0 64H768z m-128-256h96H64a64 64 0 0 0-64 64V576l256 320h512a64 64 0 0 0 64-64v-384a32 32 0 1 0-64 0V832H320v-320H64v-576h576a32 32 0 1 0 0-64zM96 576H256V800L96 576z"  horiz-adv-x="1024" />

    
    <glyph glyph-name="pdf" unicode="&#59041;" d="M875.1 594.2L597.3 874.7c-4.5 4.5-9.4 8.3-14.7 11.5-1.4 0.8-2.8 1.6-4.3 2.3-0.9 0.5-1.9 0.9-2.8 1.3-9 4-18.9 6.2-29 6.2h-345c-39.8 0-73-32.2-73-72v-880c0-39.8 33.2-72 73-72h623c39.8 0 71 32.2 71 72V543.5c0 19-7 37.2-20.4 50.7zM583.5 785.6L784.3 584H583.5V785.6z m240-841.6h-623V824h311v-240c0-39.8 33.2-72 73-72h239v-568zM333.2 320h-66.7v-192h46v64h22.1c40.4 0 75.6 20.2 75.6 65.7-0.1 47.3-34.7 62.3-77 62.3z m-0.9-92h-19.8v56H331c22.2 0 34.5-7 34.5-26.4 0-18.7-10.8-29.6-33.2-29.6zM498 320h-55.5v-192h58.1c55.8 0 94.4 30.4 94.4 97s-38.6 95-97 95z m-2.9-155h-5.6V283h5.6c30.9 0 52.7-12.8 52.7-58.3S526 165 495.1 165zM752.5 282v38h-122v-192h46v73h65v38h-65v43z"  horiz-adv-x="1024" />

    
    <glyph glyph-name="icon-" unicode="&#59042;" d="M552.96 179.2c-46.08 0-94.72 10.24-138.24 33.28-66.56 30.72-117.76 81.92-148.48 143.36-30.72 64-30.72 128-2.56 186.88 35.84 74.24 117.76 122.88 212.48 122.88 46.08 0 94.72-10.24 138.24-33.28 66.56-30.72 117.76-81.92 148.48-143.36 30.72-64 30.72-128 2.56-186.88-35.84-76.8-117.76-122.88-212.48-122.88z m-76.8 432.64c-76.8 0-140.8-35.84-166.4-92.16-20.48-43.52-17.92-92.16 2.56-143.36 23.04-51.2 66.56-92.16 122.88-120.32 35.84-17.92 76.8-28.16 115.2-28.16 76.8 0 140.8 35.84 166.4 92.16 20.48 43.52 17.92 92.16-2.56 143.36-23.04 51.2-66.56 92.16-122.88 120.32-35.84 17.92-76.8 28.16-115.2 28.16zM591.1552 742.016l48.7936-15.5136-100.1216-314.6752-48.7936 15.5136zM675.84 30.72H220.16l102.4 143.36 40.96-28.16-43.52-64h355.84z"  horiz-adv-x="1024" />

    
    <glyph glyph-name="iconset0357" unicode="&#59136;" d="M512 853.333333C251.733333 853.333333 42.666667 644.266667 42.666667 384s209.066667-469.333333 469.333333-469.333333c260.266667 0 469.333333 209.066667 469.333333 469.333333S772.266667 853.333333 512 853.333333zM746.666667 740.266667c0-4.266667 0-10.666667 0-14.933333 0-44.8-4.266667-87.466667-12.8-130.133333C704 588.8 682.666667 563.2 682.666667 533.333333c0-17.066667 6.4-34.133333 19.2-44.8-14.933333-34.133333-29.866667-68.266667-51.2-100.266667-78.933333 89.6-134.4 202.666667-153.6 328.533333 49.066667 29.866667 102.4 53.333333 157.866667 68.266667C686.933333 774.4 718.933333 759.466667 746.666667 740.266667zM657.066667 320c38.4-36.266667 78.933333-68.266667 123.733333-93.866667C736 217.6 689.066667 213.333333 640 213.333333c-21.333333 0-42.666667 2.133333-64 2.133333 0 4.266667 0 8.533333-2.133333 12.8C603.733333 256 631.466667 288 657.066667 320zM512 810.666667c23.466667 0 46.933333-2.133333 70.4-6.4-29.866667-12.8-59.733333-25.6-89.6-40.533333C490.666667 778.666667 490.666667 793.6 490.666667 808.533333 497.066667 810.666667 505.6 810.666667 512 810.666667zM627.2 352c-23.466667-32-49.066667-59.733333-76.8-87.466667C539.733333 273.066667 526.933333 277.333333 512 277.333333c-27.733333 0-51.2-17.066667-59.733333-42.666667-85.333333 21.333333-166.4 53.333333-238.933333 98.133333 19.2 72.533333 51.2 140.8 91.733333 200.533333 4.266667 0 8.533333-2.133333 14.933333-2.133333 36.266667 0 64 27.733333 64 64 0 8.533333-2.133333 17.066667-4.266667 25.6 25.6 25.6 51.2 46.933333 78.933333 68.266667C482.133333 561.066667 541.866667 445.866667 627.2 352zM149.333333 160c-38.4 64-61.866667 136.533333-64 215.466667 25.6-21.333333 51.2-42.666667 78.933333-59.733333C155.733333 268.8 149.333333 219.733333 149.333333 170.666667 149.333333 166.4 149.333333 162.133333 149.333333 160zM177.066667 358.4c-32 21.333333-59.733333 44.8-87.466667 70.4 21.333333 192 170.666667 345.6 360.533333 375.466667 0-23.466667 2.133333-44.8 4.266667-68.266667-36.266667-25.6-70.4-53.333333-102.4-83.2C341.333333 659.2 330.666667 661.333333 320 661.333333c-36.266667 0-64-27.733333-64-64 0-14.933333 6.4-27.733333 14.933333-40.533333C228.266667 497.066667 196.266667 430.933333 177.066667 358.4zM196.266667 98.133333C194.133333 121.6 192 145.066667 192 170.666667c0 40.533333 4.266667 81.066667 12.8 119.466667 76.8-44.8 160-78.933333 247.466667-98.133333 0-2.133333 0-2.133333 2.133333-4.266667-74.666667-49.066667-160-81.066667-251.733333-96C198.4 93.866667 198.4 96 196.266667 98.133333zM512-42.666667c-104.533333 0-198.4 38.4-273.066667 100.266667 89.6 17.066667 170.666667 51.2 243.2 100.266667C490.666667 151.466667 501.333333 149.333333 512 149.333333c21.333333 0 38.4 10.666667 51.2 25.6 25.6-2.133333 51.2-4.266667 76.8-4.266667 68.266667 0 134.4 8.533333 198.4 23.466667 14.933333-6.4 29.866667-14.933333 44.8-19.2C810.666667 44.8 672-42.666667 512-42.666667zM842.666667 238.933333c-59.733333 29.866667-115.2 70.4-162.133333 117.333333 23.466667 36.266667 42.666667 74.666667 59.733333 113.066667 2.133333 0 4.266667 0 6.4 0 36.266667 0 64 27.733333 64 64 0 25.6-14.933333 46.933333-36.266667 57.6 8.533333 38.4 12.8 76.8 12.8 117.333333 91.733333-78.933333 149.333333-194.133333 149.333333-324.266667 0-42.666667-6.4-81.066667-17.066667-119.466667C896 253.866667 870.4 245.333333 842.666667 238.933333z"  horiz-adv-x="1024" />

    
    <glyph glyph-name="shuju" unicode="&#59051;" d="M512 875.52c-225.28 0-409.6-73.728-409.6-178.176V70.656c0-102.4 184.32-178.176 409.6-178.176s409.6 73.728 409.6 178.176V697.344c0 104.448-184.32 178.176-409.6 178.176z m0-40.96c204.8 0 368.64-65.536 368.64-137.216 0-69.632-163.84-137.216-368.64-137.216s-368.64 65.536-368.64 137.216 163.84 137.216 368.64 137.216z m368.64-763.904c0-69.632-163.84-137.216-368.64-137.216s-368.64 65.536-368.64 137.216v131.072c65.536-59.392 206.848-98.304 368.64-98.304s303.104 38.912 368.64 98.304v-131.072z m-368.64 71.68c-204.8 0-368.64 65.536-368.64 137.216v131.072c65.536-59.392 206.848-98.304 368.64-98.304s303.104 38.912 368.64 98.304v-131.072c0-69.632-163.84-137.216-368.64-137.216z m0 208.896c-204.8 0-368.64 65.536-368.64 137.216V619.52c65.536-59.392 206.848-98.304 368.64-98.304s303.104 38.912 368.64 98.304v-131.072c0-69.632-163.84-137.216-368.64-137.216zM796.672 490.496m-24.576 0a24.576 24.576 0 1 1 49.152 0 24.576 24.576 0 1 1-49.152 0ZM796.672 283.648m-24.576 0a24.576 24.576 0 1 1 49.152 0 24.576 24.576 0 1 1-49.152 0ZM796.672 74.752m-24.576 0a24.576 24.576 0 1 1 49.152 0 24.576 24.576 0 1 1-49.152 0Z"  horiz-adv-x="1024" />

    
    <glyph glyph-name="tianqi_icon" unicode="&#59044;" d="M544 605.8624c-144.9088 0-262.4-117.4784-262.4-262.4 0-2.8672 0.2688-5.6448 0.3456-8.4992 1.8176 1.3952 120.7552 91.2384 128.7296 96.2944 1.4464 0.9216 212.096-158.2976 214.6816-163.1488l45.2352 31.936C679.8464 318.784 698.0608 332.79999999999995 725.3376 332.79999999999995s45.4912-14.016 54.7328-32.7424h22.7456a263.808 263.808 0 0 1 3.584 43.4176c0 144.9216-117.4912 262.3872-262.4 262.3872zM777.2416 300.0576a12.8 12.8 0 0 0-12.6336 14.8992c2.24 13.568 3.392 27.4688 3.392 41.3184 0 137.6256-111.9744 249.6-249.6 249.6S268.8 493.9008 268.8 356.27520000000004c0-13.8496 1.152-27.7504 3.4048-41.3184a12.7872 12.7872 0 1 0-25.2416-4.1984A277.1712 277.1712 0 0 0 243.2 356.27520000000004c0 151.744 123.456 275.2 275.2 275.2S793.6 508.0192 793.6 356.27520000000004c0-15.2448-1.2672-30.5792-3.7504-45.5168a12.8 12.8 0 0 0-12.608-10.7008zM683.7248 207.2704a12.6592 12.6592 0 0 0-7.808 2.6752L410.8032 414.9888 154.1248 210.07360000000006a12.8 12.8 0 1 0-15.9744 19.9936l264.5376 211.2a12.7872 12.7872 0 0 0 15.808 0.128l273.0624-211.2a12.8 12.8 0 0 0-7.8336-22.9248zM892.7872 207.2704a12.672 12.672 0 0 0-7.8336 2.688l-158.4128 123.1104-93.1456-74.9312a12.8128 12.8128 0 0 0-16.0512 19.9424l101.0432 81.2672c4.6208 3.712 11.2 3.7632 15.872 0.1408l166.4-129.3312a12.7872 12.7872 0 0 0-7.872-22.8864zM704 128H358.4a12.8 12.8 0 1 0 0 25.6h345.6a12.8 12.8 0 1 0 0-25.6z"  horiz-adv-x="1024" />

    
    <glyph glyph-name="taiyang" unicode="&#59373;" d="M861 239.3l144.6 144.6L861 528.4V732.9H656.6L512 877.4 367.4 732.9H163v-204.5L18.4 383.9 163 239.3v-204.4h204.4L512-109.7l144.6 144.6H861zM512-119.7c-2.6 0-5.1 1-7.1 2.9L363.3 24.9H163c-5.5 0-10 4.5-10 10V235.2L11.4 376.8c-1.9 1.9-2.9 4.4-2.9 7.1 0 2.7 1.1 5.2 2.9 7.1L153 532.6V732.9c0 5.5 4.5 10 10 10h200.3L504.9 884.5c1.9 1.9 4.4 2.9 7.1 2.9s5.2-1.1 7.1-2.9l141.6-141.6H861c5.5 0 10-4.5 10-10v-200.3L1012.6 391c1.9-1.9 2.9-4.4 2.9-7.1 0-2.7-1.1-5.2-2.9-7.1L871 235.2v-200.3c0-5.5-4.5-10-10-10H660.7l-141.6-141.6c-2-2-4.5-3-7.1-3zM173 44.9h194.4c2.7 0 5.2-1.1 7.1-2.9L512-95.6l137.5 137.5c1.9 1.9 4.4 2.9 7.1 2.9H851V239.3c0 2.7 1.1 5.2 2.9 7.1l137.5 137.5-137.5 137.5c-1.9 1.9-2.9 4.4-2.9 7.1V722.9H656.6c-2.7 0-5.2 1.1-7.1 2.9L512 863.3 374.5 725.8c-1.9-1.9-4.4-2.9-7.1-2.9H173v-194.4c0-2.7-1.1-5.2-2.9-7.1L32.6 383.9l137.5-137.5c1.9-1.9 2.9-4.4 2.9-7.1v-194.4zM512 383.9m-257.8 0a257.8 257.8 0 1 1 515.6 0 257.8 257.8 0 1 1-515.6 0ZM512 116.1c-71.5 0-138.8 27.9-189.4 78.4-50.6 50.6-78.4 117.8-78.4 189.4s27.9 138.8 78.4 189.4c50.6 50.6 117.8 78.4 189.4 78.4 71.5 0 138.8-27.9 189.4-78.4 50.6-50.6 78.4-117.8 78.4-189.4S752 245.1 701.4 194.5 583.5 116.1 512 116.1z m0 515.6c-66.2 0-128.4-25.8-175.2-72.6-46.8-46.8-72.6-109-72.6-175.2s25.8-128.4 72.6-175.2c46.8-46.8 109-72.6 175.2-72.6 66.2 0 128.4 25.8 175.2 72.6 46.8 46.8 72.6 109 72.6 175.2S734 512.3 687.2 559.1c-46.8 46.8-109 72.6-175.2 72.6z"  horiz-adv-x="1024" />

    
    <glyph glyph-name="yueliang" unicode="&#59045;" d="M565 695.6c25.6-44.6 40.4-96.2 40.4-151.3 0-167.9-136.1-304-304-304-22.9 0-45.2 2.6-66.7 7.4C284.5 135.3 397 56.8 527.8 56.8c177 0 320.5 143.5 320.5 320.5 0 164.4-123.8 299.8-283.3 318.3zM312.9 652.4h-39.2v39.2c0 10.8-8.8 19.6-19.6 19.6s-19.6-8.8-19.6-19.6v-39.2h-39.2c-10.8 0-19.6-8.8-19.6-19.6s8.8-19.6 19.6-19.6h39.2V574c0-10.8 8.8-19.6 19.6-19.6s19.6 8.8 19.6 19.6v39.2h39.2c10.8 0 19.6 8.8 19.6 19.6s-8.8 19.6-19.6 19.6zM306.9 650.4h-35.2v35.2c0 9.7-7.9 17.6-17.6 17.6-9.7 0-17.6-7.9-17.6-17.6v-35.2h-35.2c-9.7 0-17.6-7.9-17.6-17.6 0-9.7 7.9-17.6 17.6-17.6h35.2V580c0-9.7 7.9-17.6 17.6-17.6 9.7 0 17.6 7.9 17.6 17.6v35.2h35.2c9.7 0 17.6 7.9 17.6 17.6 0 9.7-7.9 17.6-17.6 17.6zM427.8 420.7h-27.5v27.5c0 7.6-6.2 13.8-13.8 13.8-7.6 0-13.8-6.2-13.8-13.8v-27.5h-27.5c-7.6 0-13.8-6.2-13.8-13.8 0-7.6 6.2-13.8 13.8-13.8h27.5v-27.5c0-7.6 6.2-13.8 13.8-13.8 7.6 0 13.8 6.2 13.8 13.8v27.5h27.5c7.6 0 13.8 6.2 13.8 13.8 0 7.6-6.2 13.8-13.8 13.8zM423.6 419.3h-24.7V444c0 6.8-5.5 12.4-12.4 12.4-6.8 0-12.4-5.5-12.4-12.4v-24.7h-24.7c-6.8 0-12.4-5.5-12.4-12.4 0-6.8 5.5-12.4 12.4-12.4h24.7v-24.7c0-6.8 5.5-12.4 12.4-12.4 6.8 0 12.4 5.5 12.4 12.4v24.7h24.7c6.8 0 12.4 5.5 12.4 12.4 0 6.8-5.5 12.4-12.4 12.4zM563.4 673c23.8-41.4 37.5-89.4 37.5-140.6 0-156-126.5-282.5-282.5-282.5-21.3 0-42 2.4-62 6.9 46.3-104.5 150.8-177.4 272.4-177.4 164.5 0 297.9 133.4 297.9 297.9 0 152.7-115.1 278.6-263.3 295.7z"  horiz-adv-x="1024" />

    
    <glyph glyph-name="richurila" unicode="&#59046;" d="M244.9 295c12.3 0 22.3 10 22.3 22.3 0 135 109.8 244.9 244.9 244.9S757 452.4 757 317.3c0-12.3 10-22.3 22.3-22.3s22.3 10 22.3 22.3c0 159.6-129.8 289.4-289.4 289.4S222.6 476.8 222.6 317.2c0-12.3 10-22.2 22.3-22.2zM512 651.1c12.3 0 22.3 10 22.3 22.3V807c0 12.3-10 22.3-22.3 22.3s-22.3-10-22.3-22.3v-133.6c0-12.3 10-22.3 22.3-22.3zM763.9 546.8c5.7 0 11.4 2.2 15.7 6.5l94.4 94.4c8.7 8.7 8.7 22.8 0 31.5s-22.8 8.7-31.5 0l-94.4-94.4c-8.7-8.7-8.7-22.8 0-31.5 4.4-4.3 10.1-6.5 15.8-6.5zM1001.7 339.5H868.2c-12.3 0-22.3-10-22.3-22.3s10-22.3 22.3-22.3h133.6c12.3 0 22.3 10 22.3 22.3s-10.1 22.3-22.4 22.3zM178.1 317.2c0 12.3-10 22.3-22.3 22.3H22.3C10 339.5 0 329.5 0 317.2S10 295 22.3 295h133.6c12.2 0 22.2 9.9 22.2 22.2zM244.4 553.3c4.3-4.3 10-6.5 15.7-6.5s11.4 2.2 15.7 6.5c8.7 8.7 8.7 22.8 0 31.5l-94.4 94.4c-8.7 8.7-22.8 8.7-31.5 0s-8.7-22.8 0-31.5l94.5-94.4zM935 161.4H89c-12.3 0-22.3-10-22.3-22.3s10-22.3 22.3-22.3h846c12.3 0 22.3 10 22.3 22.3s-10 22.3-22.3 22.3zM779.1-16.7H244.9c-12.3 0-22.3-10-22.3-22.3s10-22.3 22.3-22.3h534.3c12.3 0 22.3 10 22.3 22.3s-10.1 22.3-22.4 22.3z"  horiz-adv-x="1024" />

    
    <glyph glyph-name="yun" unicode="&#59087;" d="M769.848889 14.449778H242.716444C114.631111 8.817778 6.058667 105.244444 0.284444 229.916444c-5.831111 124.643556 93.297778 230.286222 221.383112 235.946667-0.341333 151.466667 120.234667 277.191111 275.541333 287.288889 155.306667 10.069333 291.982222-98.929778 312.32-249.116444 130.901333-19.626667 224.113778-134.200889 213.703111-262.684445-10.410667-128.512-120.888889-227.470222-253.354667-226.901333z m-496.355556 82.090666h496.355556c60.273778 0 115.968 31.288889 146.090667 82.062223a160.341333 160.341333 0 0 1 0 164.152889c-30.151111 50.801778-85.816889 82.090667-146.090667 82.062222-11.178667 0-21.902222 4.323556-29.809778 12.032a40.476444 40.476444 0 0 0-12.373333 29.013333c0 113.322667-94.378667 205.198222-210.830222 205.198222-116.451556 0-210.858667-91.875556-210.858667-205.198222v-8.618667c99.697778-27.648 168.504889-116.195556 168.675555-217.088 0-14.648889-8.021333-28.216889-21.077333-35.555555a43.178667 43.178667 0 0 0-42.183111 0 40.846222 40.846222 0 0 0-21.048889 35.555555c0 79.160889-65.848889 143.416889-147.2 143.644445-81.521778 0-147.598222-64.312889-147.598222-143.644445 0-79.303111 66.076444-143.644444 147.598222-143.644444h16.440889c4.608 0.768 9.329778 0.768 13.937778 0z"  horiz-adv-x="1024" />

    
    <glyph glyph-name="leida" unicode="&#59048;" d="M941.186388 565.322695c-23.462365 55.471382-57.044204 105.282858-99.813287 148.051941s-92.581582 76.350922-148.052964 99.813287c-57.446363 24.298406-118.451786 36.617989-181.321672 36.617989-62.869886 0-123.875309-12.320607-181.321672-36.617989-55.471382-23.462365-105.282858-57.044204-148.051941-99.813287-42.769083-42.769083-76.350922-92.580558-99.813287-148.051941-24.298406-57.446363-36.617989-118.451786-36.617989-181.321672s12.320607-123.875309 36.617989-181.321672c23.462365-55.471382 57.044204-105.283882 99.813287-148.052964 42.769083-42.769083 92.580558-76.350922 148.051941-99.813287 57.446363-24.298406 118.451786-36.617989 181.321672-36.617989 62.869886 0 123.876332 12.319583 181.321672 36.617989 55.471382 23.462365 105.283882 57.044204 148.052964 99.813287s76.350922 92.581582 99.813287 148.052964c24.298406 57.446363 36.617989 118.452809 36.617989 181.321672S965.484793 507.876332 941.186388 565.322695zM915.250692 414.699186 748.675886 414.699186c-6.65149 52.108798-30.18651 100.286054-67.939345 138.039913-37.752836 37.752836-85.930091 61.286832-138.03889 67.938322L542.697651 787.252227C741.270219 772.276141 900.275629 613.269707 915.250692 414.699186zM481.299279 459.645864l-68.882833 70.89056c20.342304 13.867846 43.706431 23.614837 68.882833 28.02938L481.299279 459.645864zM439.363168 414.699186l-101.929484 0c4.719488 26.91193 15.532765 51.748594 30.957059 73.040527L439.363168 414.699186zM481.300302 353.300814l0-143.865595c-73.170486 12.830213-131.034359 70.694085-143.865595 143.865595L481.300302 353.300814zM542.698674 353.300814l143.865595 0c-12.831236-73.17151-70.695109-131.034359-143.865595-143.865595L542.698674 353.300814zM542.698674 414.699186l0 143.866618c73.17151-12.831236 131.035382-70.695109 143.865595-143.866618L542.698674 414.699186zM481.300302 787.252227l0-166.57583c-40.873919-5.216815-79.322603-20.828374-112.223944-45.537126L253.131673 694.461891C315.953464 746.931916 394.878001 780.73479 481.300302 787.252227zM209.100854 651.671319l115.953895-119.332852c-27.13808-34.065863-44.226271-74.500784-49.732681-117.639281L108.747261 414.699186C115.572714 505.207549 152.321686 587.494671 209.100854 651.671319zM108.747261 353.300814l166.574806 0c6.65149-52.108798 30.18651-100.286054 67.938322-138.03889 37.752836-37.753859 85.930091-61.287855 138.03889-67.939345l0-166.574806C282.729781-4.277164 123.723348 154.730293 108.747261 353.300814zM542.698674-19.251204 542.698674 147.323603c52.108798 6.65149 100.286054 30.18651 138.03889 67.939345s61.287855 85.930091 67.939345 138.03889l166.574806 0C900.274606 154.731316 741.269195-4.276141 542.698674-19.251204z"  horiz-adv-x="1024" />

    
    <glyph glyph-name="yu" unicode="&#59049;" d="M700.6 707.8c-58.4 0-110.4-31.3-144.2-80.1-21.4 32.7-55.3 53.9-93.6 53.9-58 0-106.1-48.5-115.4-112h-44.9c-68.5 0-123.9-63.7-123.9-142.3 0-78.6 55.5-142.3 123.9-142.3h398.1c101.7 0 184.1 94.6 184.1 211.3 0 116.9-82.4 211.5-184.1 211.5zM700.6 731.3c-54.6 0-106-24.6-144.2-68.2-25.3 27-58.3 42-93.6 42-61.6 0-114.6-46.1-131.9-112h-28.4c-79.8 0-144.7-74.4-144.7-165.8s64.9-165.7 144.7-165.7h398.1c113 0 204.9 105.3 204.9 234.8 0 129.6-91.9 234.9-204.9 234.9z m0-422.7H302.5c-56.9 0-103.2 53.3-103.2 118.8s46.3 118.8 103.2 118.8h44.9c10.2 0 18.8 8.3 20.5 19.6 7.8 53.5 47.8 92.4 94.9 92.4 30.5 0 58.5-16.2 76.9-44.4 3.9-5.9 9.9-9.4 16.4-9.5 6.1 0 12.6 3.2 16.6 9 31.3 45.2 77.8 71.1 127.8 71.1 90.1 0 163.4-84.3 163.4-187.9 0.1-103.6-73.2-187.9-163.3-187.9zM286.9 207.6L163.8 66.7c-8.1-9.2-8-24.1 0.2-33.2 4-4.5 9.3-6.8 14.6-6.8 5.4 0 10.7 2.3 14.8 7l123.1 140.9c8.1 9.2 8 24.1-0.2 33.2-8.2 9.2-21.4 9.1-29.4-0.2zM478.2 207.8c-8.2 9.1-21.3 9-29.4-0.2l-61.5-70.4c-8.1-9.2-8-24.1 0.2-33.2 4-4.5 9.3-6.8 14.6-6.8 5.4 0 10.7 2.3 14.8 7l61.5 70.4c8.1 9.3 8 24.1-0.2 33.2zM775.3 207.6l-61.5-70.4c-8.1-9.2-8-24.1 0.2-33.2 4-4.5 9.3-6.8 14.6-6.8 5.4 0 10.7 2.3 14.8 7l61.5 70.4c8.1 9.2 8 24.1-0.2 33.2-8.2 9.2-21.3 9.1-29.4-0.2zM613.5 207.6L490.4 66.7c-8.1-9.2-8-24.1 0.2-33.2 4-4.5 9.3-6.8 14.6-6.8 5.4 0 10.7 2.3 14.8 7l123 140.9c8.1 9.2 8 24.1-0.2 33.2-8.1 9.2-21.3 9.1-29.3-0.2z"  horiz-adv-x="1024" />

    
    <glyph glyph-name="shoucang" unicode="&#59050;" d="M928.891803 396.240694c-4.862772 14.704022-18.294016 25.021413-35.998232 27.56697L655.722604 457.920791 549.658066 670.570036c-7.909044 15.885669-21.976165 25.384918-37.634515 25.384918s-29.737759-9.499249-37.634515-25.362391L368.313235 457.920791 131.141244 423.807664c-17.726743-2.545557-31.180514-12.862948-36.009496-27.589497-4.841269-14.726549-0.057342-30.908142 12.738025-43.247848L279.510565 187.421048l-40.52105-233.762214c-2.420634-13.95551 0.670692-26.818458 8.693395-36.226574 7.260879-8.545945 18.055434-13.409741 29.6241-13.409741 7.499461 0 15.090054 1.95371 22.578252 5.864202L512.023551 20.245734l212.127027-110.359013c19.022049-9.907808 40.226151-6.500079 52.202352 7.545539 8.043182 9.408117 11.089454 22.271065 8.682131 36.226574l-40.498523 233.762214L916.165041 352.970319C928.982935 365.356103 933.710544 381.514144 928.891803 396.240694zM690.719406 219.419704c-7.13698-6.909662-10.409547-16.81747-8.726162-26.591139l36.77132-212.263213-192.607334 100.221839c-8.861324 4.635453-19.408081 4.635453-28.270429 0l-192.627814-100.221839 36.793847 212.263213c1.692601 9.77367-1.568702 19.681477-8.726162 26.591139l-155.846254 150.32303 215.365803 30.975723c9.885281 1.431492 18.431226 7.568066 22.862912 16.431438l96.314419 193.104978 96.315443-193.104978c4.430662-8.863372 12.976607-14.998922 22.861888-16.431438l215.37809-30.975723L690.719406 219.419704z"  horiz-adv-x="1024" />

    
    <glyph glyph-name="wendang" unicode="&#59052;" d="M376.097774 344.829885l173.962054 0 0-34.792411-173.962054 0 0 34.792411ZM376.097774 222.033142l243.546875 0 0-34.792411-243.546875 0 0 34.792411ZM376.097774 466.603323l243.546875 0 0-34.792411-243.546875 0 0 34.792411ZM799.170418-51.106726 225.645157-51.106726c-29.241998 0-52.213175 24.619724-52.213175 53.861722l-0.815575 764.138554c0 29.259394 22.970154 52.213175 52.213175 52.213175l404.64904 0c12.534478 0 24.704658-4.461615 34.256198-12.551874l170.065304-173.447331c10.741645-8.999978 16.766872-24.594141 16.766872-40.212864l0.815575-591.787184C851.382571-28.161131 828.412416-51.106726 799.170418-51.106726zM224.829582 784.297942c-10.044774 0-18.219967-8.175193-18.219967-18.219967l0.815575-764.138554c0-10.06217 8.175193-18.237363 18.219967-18.237363l573.525262 0c10.044774 0 18.219967 8.175193 18.219967 18.219967l-0.815575 591.787184c0 5.395894-2.353604 10.461259-6.459109 13.93743L640.058584 781.09397c-2.098801 1.674129-6.271844 3.203972-10.579963 3.203972L224.829582 784.297942zM828.399113 588.376761 619.644649 588.376761 619.644649 797.131225 654.43706 797.131225 654.43706 623.169171 828.399113 623.169171Z"  horiz-adv-x="1024" />

    
    <glyph glyph-name="weixingyuntu" unicode="&#59053;" d="M195.732299 895.99049c41.803911 0.475487 51.840999-16.961901 71.87195-37.070658L391.399327 731.670992c16.369704-20.480501 44.816766-35.04768 55.899925-60.114464 13.771819-31.122754-12.37994-72.265307-11.977938-73.142796q18.466168-19.019461 36.932335-38.073502l51.910161 52.100355c21.613024 10.806512 30.811527 45.210123 68.876384 39.076347 41.86875-6.747586 79.410572-62.677769 105.80872-89.171014 13.776141-13.832335 31.689016-27.055183 41.929266-44.090569a71.513173 71.513173 0 0 0 7.983851-48.0933c-8.459338-37.416467-73.665831-80.910516-96.826347-111.216299l6.989652-7.011264 37.930857-40.079192 21.958832 22.045284c15.850992 7.080427 36.39201 17.610292 58.89549 8.01411s39.046089-34.057803 54.897081-51.097511l114.791093-117.229042c18.193843-18.384038 59.561171-42.793787 53.907204-82.159749-4.616542-32.134244-23.821875-44.95509-41.929267-63.11003l-108.804284-111.216298c-54.071463-36.175879-98.888229 34.070771-124.77631 60.114465l-124.7936 127.244517c-14.567178 14.619049-37.342983 34.628387-27.949962 69.131418 6.799457 24.980333 27.262668 35.255165 40.926422 53.103199v2.005689L569.058383 273.764501l-67.864895-69.109805c-30.867721-21.128892-100.669143-12.142197-147.733663-12.025487L302.552508 244.729565l-0.998521 67.130052c4.162668 27.790026-0.708907 53.284749 7.983851 75.144161 11.264708 28.321706 62.154734 62.405445 81.852844 88.181137v2.005689l-39.927901 40.074869h-0.998521l-20.960311-22.045284c-19.045397-19.114558-50.142215-53.725655-89.836695-30.059394-21.003537 12.535554-42.646819 39.145509-57.896968 58.113099L65.976349 641.501457c-16.252994 16.425898-48.901628 36.404977-42.923465 73.142795 5.390288 33.10683 28.779903 47.846912 47.916073 67.130052C110.659114 821.780011 143.497943 868.554918 195.732299 895.99049z m9.980894-29.056549c-26.32034-11.173933-37.900599-28.330352-55.899924-47.090456L71.958834 741.69079c-7.547268-7.573204-35.371875-43.269274-8.982373-53.103199l164.691242 168.326552-2.991242 4.007055a109.150093 109.150093 0 0 1-18.963268 6.012743z m41.929267-31.062238l-164.691242-169.325074 19.966111-21.04244 165.698409 169.329397c-5.079061 6.985329-12.946201 17.22558-20.977601 21.038117z m40.922099-42.097848l-164.691242-169.325074 20.964633-21.04244L310.536359 772.735738z m41.929267-43.083402l-164.691242-168.326552 19.966111-21.038118h1.992721l163.705688 168.326553v2.001366z m41.929266-42.080557L206.711715 539.302112l20.960311-21.04244 2.995565 2.005689 162.707166 167.319385z m41.929266-42.080558L248.649627 497.199942l2.995565-4.007055c28.996033-11.407354 40.30829 6.393132 55.899925 22.045284L403.372942 612.423294c12.258907 12.336714 30.660236 35.350262 10.966448 54.123335z m156.716036-94.180912l-213.614483-218.425542 4.988286-5.009899c11.355483-23.92994 46.684132 25.706531 58.89549 38.073503l165.689764 170.340886zM749.743263 315.866671c-22.728256-12.06439-40.399064-31.784113-55.899925-51.097511l-55.899925-57.110254-30.941205-30.059394c-9.289278-12.764652-5.057448-28.935516 1.992721-40.074869q25.45582 25.040849 50.911639 50.094667L775.678891 306.849718l-2.995565 4.007054a53.820752 53.820752 0 0 1-22.940063 5.009899z m45.91903-30.055071l-164.691242-169.329397 12.967815-13.024008 6.985329-8.018432 50.911639 50.09899 114.791092 119.230407c-5.109319 7.184169-12.764652 17.156418-20.973278 21.04244z m40.926422-43.083402l-163.705688-168.326552v-2.005689l19.961789-19.019461 49.913117 49.096145 115.789614 120.233252c-4.754865 6.535778-13.650786 17.411452-21.967477 20.022305z m-682.772714-9.016953c150.396388 1.962463 250.879659-109.746613 219.588322-273.530108-6.051647-31.593918-15.306344-60.157691-22.961676-88.181137L23.03127 206.647416c25.382335 7.253331 51.36119 16.101703 79.860124 22.045285z m724.697658-33.067927l-164.691242-169.325074 19.961789-21.04244 51.905838 51.101834 114.795415 118.227563-19.966112 21.038117h-1.99272z m41.929266-42.080557l-164.691242-169.325074v-2.005689l19.961789-19.019461 51.879903 51.080221 113.796893 118.231885z m40.926422-43.083402l-164.691242-168.32223 3.989764-5.009899c29.886489-9.894442 40.334225 7.408945 56.898447 24.046651l96.826347 98.187967c8.251853 8.308046 30.988754 40.986938 6.959394 51.097511z"  horiz-adv-x="1024" />

    
    <glyph glyph-name="weixing" unicode="&#59236;" d="M552.960819-57.884223h-59.40997v84.834984c0 17.443243-14.146157 31.56177-31.575073 31.56177-17.458592 0-31.576096-14.118527-31.576096-31.56177v-84.834984h-59.402806c-17.443243 0-31.575073-14.132854-31.575073-31.575073 0-17.415613 14.132854-31.56177 31.575073-31.56177h181.963945c17.444266 0 31.576096 14.146157 31.576096 31.56177 0 17.443243-14.13183 31.575073-31.576096 31.575073zM727.142535 624.113203c21.585578 21.564088 21.585578 56.550857 0 78.122109-21.558972 21.564088-56.529368 21.564088-78.10062 0-21.543622-21.571252-21.543622-56.558021 0-78.122109 21.570228-21.543622 56.540624-21.543622 78.10062 0zM902.870464 224.606052l-39.113755 39.113755c-0.731662 0.930183-1.40909 1.916649-2.281968 2.79055l-265.821673 265.813487 20.008666 20.021969c12.342071 12.328768 12.342071 32.322085 0 44.650853-12.344118 12.321605-32.322085 12.321605-44.63755-0.007163l-20.02197-20.020946L285.131423 842.803534c-0.760315 0.782828-1.662869 1.359971-2.493793 2.035352l-34.929464 34.936627c-12.314442 12.328768-32.322085 12.321605-44.63755 0.007163-12.343095-12.335932-12.343095-32.322085 0-44.650854l15.753767-15.781396c-69.096566-79.734836-106.94347-180.450478-106.94347-287.033745 0-117.283959 45.680297-227.537818 128.613982-310.471504 82.962338-82.933685 193.215174-128.613982 310.507319-128.613982 106.563825 0 207.279466 37.831555 287.026582 106.942447l20.191838-20.205141c6.171547-6.170524 14.244394-9.242483 22.31724-9.242483 8.102522 0 16.177415 3.071959 22.33259 9.242483 12.329792 12.329792 12.329792 32.323108 0 44.637551z m-152.240029-10.919679L417.3239 546.999049c-8.228389 8.221226-21.543622 8.221226-29.772011 0-8.214062-8.214062-8.214062-21.550785 0-29.764848l324.709757-324.697478c-49.766351-23.642419-104.563265-36.154359-161.260455-36.154359-100.426046 0-194.828924 39.113755-265.869768 110.12697-70.999912 70.985586-110.12697 165.388464-110.12697 265.807347 0 56.726866 12.525243 111.521733 36.183012 161.280921l94.417204-94.417205a21.012527 21.012527 0 0 1 14.893168-6.164384c5.368254 0 10.76516 2.065028 14.864517 6.164384 8.229412 8.214062 8.229412 21.550785 0 29.764848L232.322789 731.978671c9.357093 14.84405 19.74056 29.116073 31.195427 42.685086l529.816748-529.796283c-13.569013-11.469193-27.841036-21.840381-42.704529-31.181101z"  horiz-adv-x="1024" />

    
    <glyph glyph-name="weixing-A" unicode="&#59054;" d="M34.133333 558.933333c21.333333-21.333333 59.733333-21.333333 81.066667 0l217.6 217.6c21.333333 21.333333 21.333333 59.733333 0 81.066667L324.266667 866.133333C302.933333 887.466667 264.533333 887.466667 243.2 866.133333L25.6 648.533333c-21.333333-21.333333-21.333333-59.733333 0-81.066666l8.533333-8.533334z m12.8 68.266667l217.6 217.6c12.8 12.8 29.866667 12.8 38.4 0l8.533334-8.533333c12.8-12.8 12.8-29.866667 0-38.4L93.866667 580.266667c-8.533333-8.533333-25.6-8.533333-38.4 0l-8.533334 8.533333c-8.533333 12.8-8.533333 29.866667 0 38.4zM678.4 234.66666699999996l-38.4 42.666666 106.666667 106.666667-89.6 89.6 42.666666 42.666667-89.6 89.6 46.933334 46.933333 89.6-89.6L866.133333 682.666667c21.333333 21.333333 21.333333 59.733333 0 81.066666L746.666667 883.2c-21.333333 21.333333-59.733333 21.333333-81.066667 0l-119.466667-119.466667 89.6-89.6-46.933333-46.933333-89.6 89.6-42.666667-42.666667-81.066666 76.8-234.666667-230.4 81.066667-81.066666-42.666667-42.666667 89.6-89.6-46.933333-46.933333-89.6 89.6-115.2-115.2c-21.333333-21.333333-21.333333-59.733333 0-81.066667l119.466666-119.466667c21.333333-21.333333 59.733333-21.333333 81.066667 0l115.2 115.2-89.6 89.6 46.933333 46.933334 89.6-89.6 42.666667 42.666666 89.6-89.6 106.666667 106.666667 38.4-38.4 21.333333 17.066667zM584.533333 759.466667L682.666667 857.6c12.8 12.8 29.866667 12.8 38.4 0l119.466666-119.466667c12.8-12.8 12.8-29.866667 0-38.4l-98.133333-98.133333-157.866667 157.866667zM290.133333 149.33333300000004l-93.866666-93.866666c-12.8-12.8-29.866667-12.8-38.4 0L38.4 174.93333299999995c-12.8 12.8-12.8 29.866667 0 38.4l93.866667 93.866667 157.866666-157.866667z m204.8 520.533334L652.8 512l-21.333333-21.333333-157.866667 157.866666 21.333333 21.333334zM379.733333 238.93333299999995l-157.866666 157.866667 21.333333 21.333333 157.866667-157.866666-21.333334-21.333334z m132.266667-46.933333l-68.266667 68.266667-200.533333 200.533333-59.733333 59.733333 187.733333 187.733334 59.733333-59.733334 200.533334-200.533333 68.266666-68.266667-187.733333-187.733333zM900.266667 192c-4.266667 4.266667-17.066667 4.266667-21.333334 0l-179.2-179.2c-4.266667-4.266667-4.266667-17.066667 0-21.333333 4.266667-4.266667 8.533333-4.266667 8.533334-4.266667s8.533333 0 8.533333 4.266667L896 170.66666699999996c12.8 4.266667 12.8 17.066667 4.266667 21.333333zM802.133333 234.66666699999996c-4.266667 4.266667-17.066667 4.266667-21.333333 0l-119.466667-119.466667c-4.266667-4.266667-4.266667-17.066667 0-21.333333 4.266667-4.266667 8.533333-4.266667 8.533334-4.266667s8.533333 0 8.533333 4.266667l119.466667 119.466666c8.533333 4.266667 8.533333 12.8 4.266666 21.333334zM1011.2 162.133333c-4.266667 4.266667-17.066667 4.266667-21.333333 0l-256-256c-4.266667-4.266667-4.266667-17.066667 0-21.333333 4.266667-4.266667 8.533333-4.266667 8.533333-4.266667s8.533333 0 8.533333 4.266667l256 256c12.8 4.266667 12.8 12.8 4.266667 21.333333z"  horiz-adv-x="1024" />

    
    <glyph glyph-name="chengshi" unicode="&#59055;" d="M87.4 510.8h28.4v-538.2H87.4V510.8z m481.5-56.6M87.4 510.8h233.2v-28.3H87.4v28.3z m821.3 0H937v-538.2h-28.3V510.8z m0 0M513.6 786.1L682.2 651v-650H342.3V649.4l171.3 136.7m0 36.3L314 663v-690.3h396.5v692L513.6 822.4z m0 0M154 410.8h116.6v-28.3H154zM154 327.5h116.6v-28.3H154zM154 244.20000000000005h116.6v-28.3H154zM154 160.89999999999998h116.6v-28.3H154zM154 77.60000000000002h116.6v-28.3H154zM370.6 410.8h283.2v-28.3H370.6zM370.6 494.1h283.2v-28.3H370.6zM420.6 577.4h50v-28.3h-50zM487.2 577.4h50v-28.3h-50zM553.9 577.4h50v-28.3h-50zM370.6 327.5h283.2v-28.3H370.6zM370.6 244.20000000000005h283.2v-28.3H370.6zM370.6 160.89999999999998h283.2v-28.3H370.6zM370.6 77.60000000000002h283.2v-28.3H370.6zM753.8 410.8h116.6v-28.3H753.8zM753.8 327.5h116.6v-28.3H753.8zM753.8 244.20000000000005h116.6v-28.3H753.8zM753.8 160.89999999999998h116.6v-28.3H753.8zM753.8 77.60000000000002h116.6v-28.3H753.8zM703.8 510.8H937v-28.3H703.8z"  horiz-adv-x="1024" />

    
    <glyph glyph-name="set" unicode="&#59026;" d="M825.606 248.462l-6.342-12.72 86.064-127.683 3.196 31.083-138.983-135.516 29.5 3.489-138.12 82.292-11.336-4.746c-8.059-3.374-16.262-6.456-24.541-9.221l-13.23-4.419-30.815-145.197 23.85 19.319-196.574 0 23.666-18.521-37.138 149.987-11.793 4.583c-7.357 2.86-14.648 5.979-21.817 9.335l-12.173 5.697-131.136-84.024 30.174-3.072-138.983 135.508 3.639-30.405 84.836 135.361-5.281 11.862c-3.668 8.239-7.010 16.651-9.999 25.168l-4.592 13.084-148.474 29.946 19.561-23.9v191.65l-18.796-23.733 153.484 36.122 4.754 11.629c3.43 8.392 7.217 16.675 11.326 24.775l6.429 12.673-81.273 122.451-3.16-30.809 138.161 136.787-29.775-3.534 133.375-80.699 11.425 4.773c6.618 2.765 13.341 5.335 20.123 7.695l12.479 4.342 36.123 145.884-23.666-18.521h196.556l-23.85 19.319 31.628-149.029 12.546-4.682c10.191-3.803 20.214-8.079 29.976-12.79l12.168-5.872 124.879 78.724-29.883 3.033 140.371-134.697-3.683 30.689-83.262-130.727 5.232-11.919c3.598-8.198 6.876-16.57 9.803-25.042l4.386-12.693 147.395-34.685-18.796 23.733v-191.65l19.56 23.9-154.548-31.174-4.971-12c-2.96-7.146-6.192-14.234-9.673-21.215zM857.804 260.346l4.821-23.9 161.375 32.552v230.914l-153.118 36.032-5.585-23.733 23.044 7.963c-3.357 9.714-7.114 19.312-11.241 28.715l-22.325-9.8 20.564-13.098 87.004 136.602-168.544 161.732-129.576-81.686 13.002-20.625 10.596 21.958c-11.117 5.364-22.523 10.231-34.121 14.559l-8.524-22.842 23.85 5.062-32.948 155.249h-235.386l-37.533-151.58 23.666-5.86-8.011 23.027c-7.716-2.685-15.364-5.609-22.896-8.755l9.398-22.497 12.621 20.86-139.046 84.13-165.917-164.267 84.501-127.314 20.314 13.483-21.743 11.031c-4.708-9.28-9.045-18.767-12.977-28.386l22.568-9.225-5.585 23.733-160.050-37.668v-230.913l154.441-31.15 4.82 23.9-23.005-8.074c3.427-9.763 7.257-19.404 11.463-28.852l22.273 9.916-20.659 12.948-88.389-141.029 166.937-162.762 136.127 87.222-13.153 20.528-10.336-22.082c8.156-3.818 16.45-7.366 24.824-10.621l8.832 22.725-23.666-5.86 38.683-156.226 235.404-0 32.019 150.872-23.85 5.062 7.724-23.125c9.423 3.147 18.754 6.654 27.924 10.493l-9.415 22.49-12.479-20.945 143.653-85.588 166.964 162.799-89.494 132.773-20.217-13.627 21.819-10.879c3.986 7.994 7.689 16.115 11.084 24.311l-22.525 9.331zM731.429 396.19c0 114.454-92.784 207.238-207.238 207.238-114.454 0-207.238-92.784-207.238-207.238 0-114.454 92.784-207.238 207.238-207.238 29.314 0 57.815 6.105 84.063 17.765 12.306 5.467 17.85 19.874 12.383 32.18-5.467 12.306-19.874 17.85-32.18 12.383-20.044-8.905-41.804-13.566-64.266-13.566-87.524 0-158.476 70.952-158.476 158.476 0 87.524 70.952 158.476 158.476 158.476 87.524 0 158.476-70.952 158.476-158.476 0-11.565-1.235-22.953-3.659-34.038-2.877-13.154 5.455-26.15 18.609-29.027 13.154-2.877 26.15 5.455 29.027 18.609 3.171 14.501 4.785 29.382 4.785 44.456z"  horiz-adv-x="1024" />

    
    <glyph glyph-name="contract2" unicode="&#59025;" d="M261.632 17.408000000000015c-34.816 0-63.488 28.672-63.488 63.488V680.448c0 34.816 28.672 63.488 63.488 63.488h438.784c34.816 0 63.488-28.672 63.488-63.488v-113.152c0-14.336-11.776-26.112-26.112-26.112s-26.112 11.776-26.112 26.112V680.448c0 6.144-5.12 11.264-11.264 11.264H261.632c-6.144 0-11.264-5.12-11.264-11.264v-599.552c0-6.144 5.12-11.264 11.264-11.264h215.04c6.656 0 13.312-3.072 17.92-8.192s7.168-11.776 7.168-18.432c-0.512-13.824-11.264-25.088-25.6-25.6H261.632zM324.096 566.2719999999999c-12.8 0-23.04 10.24-23.04 23.04s10.24 23.04 23.04 23.04h263.168c12.8 0 23.04-10.24 23.04-23.04s-10.24-23.04-23.04-23.04H324.096z m0-118.272c-12.8 0-23.04 10.24-23.04 23.04s10.24 23.04 23.04 23.04h171.008c12.8 0 23.04-10.24 23.04-23.04S507.904 448 495.104 448H324.096z m0-118.784c-12.8 0-23.04 10.24-23.04 23.552 0 12.8 10.24 23.04 23.04 23.552H435.2c12.8 0 23.04-10.24 23.04-23.552 0-12.8-10.24-23.552-23.04-23.552H324.096z m412.672-52.736c-59.392 0-108.032 48.64-108.032 108.032 0 59.392 48.64 108.032 108.032 108.032 59.392 0 108.032-48.64 108.032-108.032 0-59.904-48.64-108.032-108.032-108.032z m0 169.472c-33.792 0-61.44-27.648-61.44-61.44s27.648-61.44 61.44-61.44 61.44 27.648 61.44 61.44-27.648 61.44-61.44 61.44zM897.024 2.5599999999999454H576.512c-12.8 0-23.04 10.24-23.04 23.04V138.24c0 12.8 10.24 23.04 23.04 23.04h320.512c12.8 0 23.04-10.24 23.04-23.04V25.600000000000023c0.512-12.8-10.24-23.04-23.04-23.04z m-297.472 46.08h274.432v66.048H599.552v-66.048zM626.176 116.22400000000005c-9.216 0-17.92 6.144-20.992 15.36-3.584 11.264 3.072 23.552 14.336 27.136 79.36 24.576 62.464 132.608 61.44 137.216-2.048 11.776 6.144 23.04 17.92 25.088 11.776 2.048 23.04-6.144 25.088-17.92 8.704-51.712 1.024-157.184-91.648-185.856-2.048-0.512-4.096-1.024-6.144-1.024z m226.304 0c-2.048 0-4.096 0.512-6.656 1.024-92.672 28.672-100.352 134.144-91.648 185.856 2.048 11.776 13.312 19.968 25.088 17.92 11.776-2.048 19.968-13.312 17.92-25.088-0.512-4.608-17.408-112.64 61.44-137.216 11.264-3.584 17.92-15.872 14.336-27.136-2.56-9.216-11.264-15.36-20.48-15.36z"  horiz-adv-x="1024" />

    
    <glyph glyph-name="yinzhang" unicode="&#59187;" d="M853.596 191.546v86.846c0 17.673-14.327 32-32 32H656.303v122.67c52.189 42.544 82.547 106.325 82.693 173.737C738.996 730.982 637.19 832 512 832c-125.19 0-226.996-101.018-226.996-225.2 0-67.39 30.608-131.094 82.759-173.739v-122.669H202.404c-17.673 0-32-14.327-32-32v-86.846H96c-17.673 0-32-14.327-32-32V-32c0-17.673 14.327-32 32-32h832c17.673 0 32 14.327 32 32V159.546c0 17.673-14.327 32-32 32h-74.404zM418.879 475.595c-42.984 29.789-68.706 78.739-68.879 131.08C350 695.07 422.694 767 512.033 767 601.37 767 674 695.07 674 606.675c-0.188-52.354-25.936-101.306-68.945-131.08l-13.815-9.683V318a8 8 0 0 0-8-8H440.694a8 8 0 0 0-8 8V465.912l-13.815 9.683zM242 248h539a8 8 0 0 0 8-8v-38a8 8 0 0 0-8-8H242a8 8 0 0 0-8 8v38a8 8 0 0 0 8 8z m653.954-248H136a8 8 0 0 0-8 8V118a8 8 0 0 0 8 8h752a8 8 0 0 0 8-8v-117.954c0-0.025-0.02-0.046-0.046-0.046z"  horiz-adv-x="1024" />

    
    <glyph glyph-name="tubiao-" unicode="&#58886;" d="M807.2 583.6c-4.9 0-9.8 2.2-13 6.4-63.9 84.2-161 132.5-266.5 132.5-97.8 0-190.3-42.6-254-116.9-5.9-6.8-16.1-7.6-23-1.8-6.8 5.9-7.6 16.1-1.8 23 69.9 81.6 171.5 128.3 278.7 128.3 115.8 0 222.4-53 292.5-145.4 5.4-7.2 4-17.4-3.1-22.8-2.9-2.2-6.3-3.3-9.8-3.3zM527.7 21.299999999999955c-128.6 0-249.5 68.7-315.4 179.4-4.6 7.7-2.1 17.7 5.7 22.3 7.7 4.6 17.7 2.1 22.3-5.7 60.1-100.8 170.2-163.5 287.4-163.5 115.3 0 221 58.2 282.7 155.8 4.8 7.6 14.9 9.9 22.5 5 7.6-4.8 9.9-14.9 5-22.5-67.7-106.9-183.7-170.8-310.2-170.8zM527.7 192.60000000000002c-107.9 0-195.6 87.8-195.6 195.6s87.8 195.6 195.6 195.6S723.3 496 723.3 388.2s-87.7-195.6-195.6-195.6z m0 358.7c-89.9 0-163.1-73.2-163.1-163.1s73.2-163.1 163.1-163.1 163.1 73.2 163.1 163.1-73.2 163.1-163.1 163.1zM887.3 29.600000000000023c-9 0-16.3 7.3-16.3 16.3V558.8c0 9 7.3 16.3 16.3 16.3s16.3-7.3 16.3-16.3v-512.9c0-9-7.3-16.3-16.3-16.3zM887.3 329.5c-45.8 0-83 40.9-83 91.2v82.4c0 9 7.3 16.3 16.3 16.3s16.3-7.3 16.3-16.3v-82.4c0-32.3 22.6-58.6 50.5-58.6 27.8 0 50.5 26.3 50.5 58.6v82.4c0 9 7.3 16.3 16.3 16.3s16.3-7.3 16.3-16.3v-82.4c-0.2-50.3-37.4-91.2-83.2-91.2zM171.1 13.700000000000045c-9 0-16.3 7.3-16.3 16.3l-1 502.5c-15.7-46.3-37.3-112.4-60.5-225.6h20.8c9 0 16.3-7.3 16.3-16.3s-7.3-16.3-16.3-16.3H83c-7.3 0-14.1 3.2-18.7 8.9-4.6 5.6-6.4 12.9-5 20.1 20.5 101 81.1 278.4 82.7 280.5 6.5 8.5 17.6 11.4 27.7 7.8 10.1-3.6 16.6-12.8 16.6-23.6l1-537.9c0-9.1-7.3-16.4-16.2-16.4z"  horiz-adv-x="1024" />

    
    <glyph glyph-name="zhichu" unicode="&#58908;" d="M1098.330353 263.770353c-29.665882 0-61.650824-25.419294-102.369882-57.404235-37.195294-29.424941-82.130824-65.174588-117.187765-68.969412a75.203765 75.203765 0 0 1-19.546353 49.904941C817.814588 233.411765 725.323294 230.098824 663.883294 227.990588c-9.637647-0.210824-18.100706-0.692706-24.937412-0.692706-13.191529 0-30.599529 10.842353-52.464941 24.45553-51.079529 31.774118-128.301176 79.781647-282.654117 81.92a22.799059 22.799059 0 0 1-9.637648-1.897412v69.632a21.564235 21.564235 0 0 1-21.895529 21.172706H21.895529a21.564235 21.564235 0 0 1-21.895529-21.172706V-35.538824c0-11.745882 9.878588-21.172706 21.895529-21.172705h250.639059a21.564235 21.564235 0 0 1 21.865412 21.172705v52.254118c22.136471 0 74.842353-24.244706 125.680941-47.525647 85.443765-39.062588 191.548235-87.552 276.992-87.552 147.576471 0 507.632941 181.187765 507.632941 276.239059 0.240941 67.312941-38.610824 105.893647-106.375529 105.893647zM250.639059-14.366118H43.760941v33.430589h206.878118v-33.430589z m0 75.776H43.760941V109.929412h206.878118v-48.489412z m0 90.834824H43.760941v48.218353h206.878118v-48.218353z m0 90.593882H43.760941v48.459294h206.878118v-48.489411z m0 90.804706H43.760941v46.592h206.878118v-46.592z m446.644706-409.630118c-75.504941 0-176.700235 46.351059-258.138353 83.516236-62.825412 28.702118-112.489412 51.531294-144.504471 51.531294v234.345412a29.214118 29.214118 0 0 1 8.944941-2.108236c141.673412-1.897412 209.92-44.242824 259.584-75.053176 28.009412-17.408 50.115765-31.081412 76.257883-31.081412 7.288471 0 16.233412 0.240941 26.593882 0.722824 46.592 1.656471 132.969412 4.698353 160.737882-26.112 6.324706-7.288471 9.155765-16.474353 8.704-28.250353H498.206118a21.564235 21.564235 0 0 1-21.865412-21.172706c0-11.745882 9.878588-21.172706 21.865412-21.172706h350.870588a22.497882 22.497882 0 0 1 15.570823 6.113882c53.639529-4.939294 109.417412 39.303529 159.081412 78.607059 26.804706 21.383529 60.476235 47.736471 74.601412 47.736471 43.309176 0 62.825412-19.757176 62.825412-63.759059 0-57.404235-326.415059-233.863529-463.841883-233.86353z m152.064 371.290353c60.476235 0 109.417412 47.525647 109.417411 106.104471s-49.182118 106.134588-109.417411 106.134588c-60.476235 0-109.447529-47.555765-109.44753-106.134588-0.240941-58.578824 48.971294-106.104471 109.44753-106.104471z m0 169.652706c36.231529 0 65.656471-28.491294 65.65647-63.789176 0-35.056941-29.424941-63.759059-65.65647-63.759059-36.261647 0-65.656471 28.461176-65.656471 63.759059-0.240941 35.297882 29.394824 63.789176 65.656471 63.789176z m-250.88 24.696471c60.476235 0 109.447529 47.525647 109.447529 106.10447 0 58.608941-49.212235 106.134588-109.447529 106.134589-60.476235 0-109.417412-47.525647-109.417412-106.134589 0-58.578824 49.182118-106.104471 109.417412-106.10447z m0 169.652706c36.231529 0 65.656471-28.491294 65.65647-63.548236s-29.424941-63.548235-65.65647-63.548235c-36.231529 0-65.656471 28.491294-65.656471 63.548235 0 34.846118 29.424941 63.548235 65.656471 63.548236z m250.88 24.455529c60.476235 0 109.417412 47.525647 109.417411 106.134588C958.765176 848.474353 909.583059 896 849.347765 896c-60.476235 0-109.447529-47.525647-109.44753-106.104471-0.240941-58.608941 48.971294-106.134588 109.44753-106.134588z m0 169.652706c36.231529 0 65.656471-28.461176 65.65647-63.759059 0-35.056941-29.424941-63.759059-65.65647-63.759059-36.261647 0-65.656471 28.461176-65.656471 63.759059-0.240941 35.297882 29.394824 63.759059 65.656471 63.759059z"  horiz-adv-x="1204" />

    
    <glyph glyph-name="youxiang" unicode="&#59023;" d="M873.8 670.8 150.1 670.8c-28.8 0-52.2-23.4-52.2-52.2l0-469.1c0-28.8 23.4-52.2 52.2-52.2l723.7 0c28.8 0 52.3 23.4 52.3 52.2L926.1 618.5C926.1 647.3 902.6 670.8 873.8 670.8zM885.2 629.9l0-491.8L138.8 138.1 138.8 629.9 885.2 629.9zM168.9 568.7 168.9 568.7l314.4-278.2c7.9-6.8 18-10.6 28.7-10.6 10.6 0 20.8 3.8 28.7 10.6L855 568.8c8.9 7.8 9.8 21.4 2 30.2-7.8 8.9-21.4 9.8-30.3 2L512.6 322.8c-0.2-0.1-0.8-0.1-1 0L197.2 600.9c-8.9 7.8-22.4 6.9-30.2-2-3.8-4.3-5.7-9.8-5.3-15.5C162 577.7 164.6 572.4 168.9 568.7z"  horiz-adv-x="1024" />

    
    <glyph glyph-name="youxiang1" unicode="&#59024;" d="M153.236734 732.888578l714.763665 0c48.810633 0 88.718697-38.475467 89.332667-85.853503l-446.458679-242.518237L64.313381 646.830419C64.722694 694.310782 104.323773 732.888578 153.236734 732.888578L153.236734 732.888578zM64.313381 554.018587l-0.409313-429.062856c0-47.787349 40.215049-86.876786 89.332667-86.876786l714.763665 0c49.117618 0 89.332667 39.089437 89.332667 86.876786L957.333067 554.223244 521.311882 322.961127c-6.651344-3.581493-14.735285-3.581493-21.386629 0L64.313381 554.018587 64.313381 554.018587zM64.313381 554.018587"  horiz-adv-x="1024" />

    
    <glyph glyph-name="bangdingyouxiang" unicode="&#58887;" d="M971.52 483.328a49.152 49.152 0 0 1-20.096 39.616L540.992 822.976a49.792 49.792 0 0 1-57.984 0L72.64 522.944a48.64 48.64 0 0 1-13.568-15.552 16.576 16.576 0 0 1-4.16-4.736 18.816 18.816 0 0 1-1.792-13.952c-0.192-1.792-0.64-3.52-0.64-5.376v-498.496c0-27.072 22.016-49.152 49.152-49.152h820.736a49.408 49.408 0 0 1 49.152 49.152V483.328zM504.832 793.152c2.048 1.536 4.544 2.368 7.168 2.368s5.12-0.768 7.168-2.368l403.2-294.72L512 263.808 100.8 497.792l404.032 295.36z m426.176-816.96a12.288 12.288 0 0 0-8.64-3.584H101.632a12.16 12.16 0 0 0-12.16 12.16V461.696l413.376-235.264a18.688 18.688 0 0 1 18.368 0l413.312 236.352 0.064-477.952a12.8 12.8 0 0 0-3.584-8.64z m0 0"  horiz-adv-x="1024" />

    
    <glyph glyph-name="warn" unicode="&#59020;" d="M510.977-6.393c-210.599 0-381.325 170.722-381.325 381.325 0 210.599 170.725 381.324 381.325 381.324 210.599 0 381.324-170.725 381.324-381.324 0-210.604-170.724-381.325-381.324-381.325l0 0zM569.3 560.723c0 29.19-29.965 52.85-59.182 52.85-29.218 0-58.321-23.66-58.321-52.85l15.35-220.395c0-29.19 13.427-52.879 42.588-52.879 29.218 0 44.216 23.689 44.216 52.879l15.35 220.395zM511.894 258.858c-33.001 0-59.698-26.812-59.698-59.809 0-33 26.698-59.725 59.698-59.725 32.998 0 59.811 26.726 59.811 59.725s-26.814 59.809-59.811 59.809l0 0z"  horiz-adv-x="1024" />

    
    <glyph glyph-name="shibai" unicode="&#59021;" d="M512 895.994C229.233 895.994 0.006 666.767 0.006 384c0-282.766 229.228-511.993 511.994-511.993S1023.993 101.235 1023.993 384C1023.993 666.767 794.766 895.994 512 895.994z m319.607-831.601c-41.53-41.529-89.874-74.128-143.689-96.891-55.686-23.553-114.873-35.495-175.918-35.495s-120.233 11.942-175.918 35.495c-53.816 22.763-102.161 55.361-143.69 96.891-41.53 41.53-74.128 89.874-96.891 143.689C71.948 263.768 60.006 322.955 60.006 384s11.942 120.233 35.495 175.918c22.762 53.816 55.361 102.16 96.891 143.69s89.874 74.128 143.69 96.891C391.767 824.052 450.955 835.994 512 835.994s120.232-11.942 175.918-35.495c53.815-22.763 102.159-55.361 143.689-96.891 41.529-41.53 74.128-89.875 96.891-143.69 23.553-55.685 35.495-114.873 35.495-175.918s-11.942-120.232-35.495-175.918c-22.763-53.815-55.361-102.159-96.891-143.689zM749.773 621.774c-15.621 15.621-40.947 15.621-56.568 0L512 440.568 330.795 621.773c-15.621 15.621-40.947 15.621-56.568 0-15.621-15.621-15.621-40.947 0-56.568L455.432 384 274.227 202.796c-15.621-15.621-15.621-40.947 0-56.568 7.811-7.811 18.047-11.716 28.284-11.716s20.474 3.905 28.284 11.716L512 327.432l181.205-181.205c7.811-7.811 18.047-11.716 28.284-11.716s20.474 3.905 28.284 11.716c15.621 15.621 15.621 40.947 0 56.568L568.568 384l181.205 181.206c15.622 15.621 15.622 40.947 0 56.568z"  horiz-adv-x="1024" />

    
    <glyph glyph-name="chenggong" unicode="&#59022;" d="M512 810.666667c235.648 0 426.666667-191.018667 426.666667-426.666667s-191.018667-426.666667-426.666667-426.666667S85.333333 148.352 85.333333 384 276.352 810.666667 512 810.666667z m-74.965333-550.4L346.453333 350.848a42.666667 42.666667 0 1 1-60.330666-60.330667l120.704-120.704a42.666667 42.666667 0 0 1 60.330666 0l301.653334 301.696a42.666667 42.666667 0 1 1-60.288 60.330667l-271.530667-271.488z"  horiz-adv-x="1024" />

    
    <glyph glyph-name="redisyunshujukuRedisban" unicode="&#58891;" d="M510.208 682.219l-101.803-34.774L342.7 686.06l168.81 60.608L681.643 684.5l-64.448-37.056-106.966 34.774z m1.28-201.43l101.824 34.816 65.728-38.698-168.832-60.523-170.07 62.08 64.406 37.141 106.944-34.816z m-155.093 51.904l-69.12-33.493L65.62 581.696l225.515 83.37 65.75-38.847-122.411-44.523 121.898-49.003z m434.645 49.003l-122.41 44.523 65.706 38.848 225.557-83.371L738.176 499.2l-69.099 33.493 121.963 49.003zM511.488 287.25300000000004L64.96 462.357 64 551.104l447.488-174.933 447.573 172.992v-89.43l-447.573-172.48z m1.024-33.664L960 426.624v-89.493L512.512 164.71500000000003 65.962 339.77599999999995l-1.002 88.747 447.552-174.934zM64.939 304.94000000000005l447.573-174.934L960 302.99699999999996v-89.472l-447.488-172.48L65.962 216.14999999999998l-1.002 88.768z"  horiz-adv-x="1024" />

    
    <glyph glyph-name="yunchucun" unicode="&#58892;" d="M248.895-20.583999999999946a240.953 240.953 0 1 0 0 481.802c5.956 0 11.703 0 17.45-0.627a20.898 20.898 0 1 0-3.24-41.796h-14.21a199.158 199.158 0 1 1 0-398.21 20.898 20.898 0 0 0 0-41.796zM350.981-20.583999999999946H240.327a20.898 20.898 0 1 0 0 41.795H350.98a20.898 20.898 0 0 0 0-41.795z m-6.165 489.012h-1.88a10.449 10.449 0 0 0-8.36 12.12 307.618 307.618 0 0 0 302.812 252.448 10.449 10.449 0 0 0 0-20.898 286.72 286.72 0 0 1-282.123-235.102 10.449 10.449 0 0 0-10.449-8.568zM955.037 325.381a20.898 20.898 0 0 0-20.062 27.272 329.143 329.143 0 1 1-644.807 92.996 20.898 20.898 0 0 0-41.796 0 370.939 370.939 0 1 0 726.622-105.326 20.898 20.898 0 0 0-19.957-14.942zM995.056 319.634a20.898 20.898 0 0 0-6.583 1.045 99.579 99.579 0 0 1-30.615 4.807h-1.15a20.898 20.898 0 1 0-3.343 41.796h5.538a135.837 135.837 0 0 0 42.84-6.897 20.898 20.898 0 0 0-6.582-40.75z m-12.852-368.222H449.306a20.898 20.898 0 0 0-20.898 20.898V192.784a20.898 20.898 0 0 0 20.898 20.898h532.898a20.898 20.898 0 0 0 20.898-20.898V-27.690000000000055a20.898 20.898 0 0 0-20.898-20.898z m-512 41.796h491.102V171.88599999999997H470.204zM982.204 171.88599999999997H449.306a20.898 20.898 0 0 0-16.718 33.436l63.843 84.637a20.898 20.898 0 0 0 16.718 8.36h405.525a20.898 20.898 0 0 0 16.719-8.36l63.738-85.055a20.898 20.898 0 0 0-16.927-33.018z m-491.102 41.796h449.306l-32.392 43.258H523.598zM870.818 114.10299999999995h21.211q20.898 0 20.898-20.898v-21.212q0-20.897-20.898-20.897h-21.211q-20.898 0-20.898 20.897v21.212q0 20.898 20.898 20.898zM564.245 72.09799999999996H449.306a10.449 10.449 0 0 0 0 20.898h114.939a10.449 10.449 0 0 0 0-20.898z"  horiz-adv-x="1024" />

    
    <glyph glyph-name="shimingrenzheng" unicode="&#58893;" d="M810.304 649.984H541.888a20.288 20.288 0 0 1-20.16-20.352c0-11.392 9.088-20.416 20.16-20.416h268.416a20.224 20.224 0 0 1 20.16 20.416 20.16 20.16 0 0 1-20.16 20.352z m0-101.632H541.888c-11.136 0-20.16-9.216-20.16-20.416s9.024-20.416 20.16-20.416h268.416c11.2 0 20.16 9.216 20.16 20.416s-8.96 20.416-20.16 20.416zM634.496 426.24a20.352 20.352 0 0 1-20.16 20.352h-72.448a20.352 20.352 0 0 1-20.16-20.352c0-11.328 9.088-20.48 20.16-20.48h72.448a20.352 20.352 0 0 1 20.16 20.48z m-361.472-31.296a74.368 74.368 0 0 0-16.384-12.864 106.24 106.24 0 0 0-31.616-13.504 465.6 465.6 0 0 1-34.56-10.56 100.48 100.48 0 0 1-29.056-16.128 42.88 42.88 0 0 1-15.104-29.184c-3.392-22.464-4.224-40.768-2.304-54.912 1.856-14.144 4.48-22.592 7.936-25.408a43.456 43.456 0 0 1 14.784-5.12c7.872-1.728 17.408-3.52 28.672-5.12 11.264-1.728 23.744-3.392 37.504-4.928a1480.32 1480.32 0 0 1 82.24-6.976 592.704 592.704 0 0 1 69.504 0 1391.36 1391.36 0 0 1 85.824 7.168 729.192 729.192 0 0 1 23.232 3.264v144.64c-2.752 0.768-5.248 1.472-7.936 2.112a258.624 258.624 0 0 0-27.904 9.472 72.128 72.128 0 0 0-22.144 12.864 52.928 52.928 0 0 0-11.776 15.232 44.16 44.16 0 0 0-4.288 16.064 59.264 59.264 0 0 0 1.024 15.808c1.344 8.576 4.096 14.72 8.192 18.304 4.096 3.712 9.344 8.064 15.744 13.248a33.728 33.728 0 0 1 7.424 10.112c2.24 4.352 4.16 8.768 5.824 13.248 1.792 5.12 3.52 10.688 5.184 16.512a26.944 26.944 0 0 1 9.728 5.76 33.408 33.408 0 0 1 7.424 10.112 46.208 46.208 0 0 1 4.352 17.28 36.352 36.352 0 0 1-3.584 23.232 18.176 18.176 0 0 1-5.696 6.72c0 14.208-0.768 28.16-2.496 41.92a260.224 260.224 0 0 1-8.704 38.144 108.736 108.736 0 0 1-19.456 36.352A78.208 78.208 0 0 1 429.12 702.4a122.88 122.88 0 0 1-22.784 12.864 149.504 149.504 0 0 1-27.392 9.088 125.76 125.76 0 0 1-29.376 3.392c-7.808 0-15.872-0.64-24.256-1.792a110.08 110.08 0 0 1-49.472-21.248 98.88 98.88 0 0 1-21.76-23.488 110.144 110.144 0 0 1-16.064-34.24 245.888 245.888 0 0 1-9.408-75.008 32 32 0 0 1-6.656-10.88 45.44 45.44 0 0 1-2.88-12.48 37.056 37.056 0 0 1 2.304-16 39.936 39.936 0 0 1 12.864-20.736 25.536 25.536 0 0 1 7.04-3.648c1.792-5.824 3.456-11.392 5.12-16.512 1.728-4.48 3.648-8.896 5.568-13.248 2.112-4.224 4.48-7.616 7.232-10.048 5.76-4.8 11.072-9.472 15.808-14.208s7.488-10.944 8.128-18.944c0.384-5.504 0.576-10.496 0.576-14.976s-0.896-8.768-2.56-12.928a43.008 43.008 0 0 0-8.128-12.416zM105.28 166.46400000000006a52.8 52.8 0 0 0-46.784 52.608V730.816c0 29.056 23.488 50.688 52.16 50.688h763.712c28.672 0 54.4-21.632 54.4-50.688v-317.504c12.8-10.176 39.68-21.376 50.432-33.6V763.968C979.2 803.008 929.856 832 891.392 832H78.016C39.488 832 8 787.968 8 748.864v-547.2c0-36.608 27.584-81.984 62.72-85.76h435.008c-3.136 11.456-5.44 38.464-7.04 50.496H105.28v0.064z m547.968 33.216a23.936 23.936 0 0 1-17.088-7.616 24.128 24.128 0 0 1-6.272-17.344 24.064 24.064 0 0 1 7.424-16.64l100.352-94.592a24.32 24.32 0 0 1 18.368-6.4 24.448 24.448 0 0 1 16.96 9.728l135.296 186.432a24.256 24.256 0 0 1-5.12 33.6 24.128 24.128 0 0 1-33.216-5.12L750.464 116.99199999999996l-80.768 76.16a22.528 22.528 0 0 1-16.448 6.528m124.928 218.176c-131.392 0-237.888-107.84-237.888-240.96 0-133.056 106.496-240.96 237.888-240.96C909.44-64.06399999999996 1016 43.84000000000003 1016 176.89599999999996c0 133.184-106.56 240.96-237.824 240.96z m0-436.608c-106.752 0-193.28 87.616-193.28 195.712 0 108.096 86.528 195.776 193.28 195.776 106.624 0 193.216-87.616 193.216-195.776 0-108.096-86.592-195.712-193.216-195.712z m0 0"  horiz-adv-x="1024" />

    
    <glyph glyph-name="jingxiang" unicode="&#58894;" d="M99.4-13.799999999999955L430.8 104V676.2L99.4 794v-807.8z m33.1 740.5l265.1-84.1v-504.9l-265.1-84.2V726.7z m37.3-639.5h16.6V693h-16.6v-605.8z m335.6 629.4H522v61h-16.6v-61z m0-80.1H522v61.1h-16.6v-61.1z m0-80.4H522v61h-16.6v-61z m0-80.1H522v61h-16.6v-61z m0-84H522v61h-16.6v-61z m0-80.1H522V373h-16.6v-61.1z m0-80.4H522v61.1h-16.6v-61.1z m0-80.1H522v61.1h-16.6v-61.1z m0-78.3H522v61.1h-16.6v-61.1z m0-80.3H522v61.1h-16.6v-61.1zM857.5 693h-16.6v-605.8h16.6V693z m-261-16.8V104l331.4-117.8V794L596.5 676.2z m298.3-622.7l-265.1 84.1v505l265.1 84.2v-673.3z"  horiz-adv-x="1024" />

    
    </font>
</defs>
</svg>
